<mxfile host="Electron" modified="2024-05-23T04:21:23.017Z" agent="Mozilla/5.0 (Windows NT 10.0; Win64; x64) AppleWebKit/537.36 (KHTML, like Gecko) draw.io/24.2.5 Chrome/120.0.6099.109 Electron/28.1.0 Safari/537.36" etag="9W7pOsV8hFo6eDvxLBbB" version="24.2.5" type="device">
  <diagram name="Page-1" id="lWEPQkexpY9FTopM_oD6">
    <mxGraphModel dx="1434" dy="854" grid="1" gridSize="10" guides="1" tooltips="1" connect="1" arrows="1" fold="1" page="1" pageScale="1" pageWidth="850" pageHeight="1100" math="0" shadow="0">
      <root>
        <mxCell id="0" />
        <mxCell id="1" parent="0" />
        <mxCell id="lIKXgrVQ7ktnPTDFoQDZ-4" value="" style="shape=image;verticalLabelPosition=bottom;labelBackgroundColor=default;verticalAlign=top;aspect=fixed;imageAspect=0;image=data:image/png,iVBORw0KGgoAAAANSUhEUgAABBwAAAJTCAYAAACrRQWGAAAgAElEQVR4AeydLZMeObK2Bxww6ETDhYYLDQcaGhq8wLAPW2i4zHDhgYbzEwwXLjzQP2PgwoF+I2c23feTLan0rZTqroiO0lMl5cclqVTKUlX/9J0bCZAACZAACZAACZAACZAACZAACZAACXQm8FNneRRHAiRAAiRAAiRAAiRAAiRAAiRAAiRAAt8ZcGAjIAESIAESIAESIAESIAESIAESIAES6E6AAYfuSCmQBEiABEiABEiABEiABEiABEiABEiAAQe2ARIgARIgARIgARIgARIgARIgARIgge4EGHDojpQCSYAESIAESIAE7kbgn//85/c3b958/+mnn/7Y//rrr3dDQH9JgARIgARI4BUBBhxeIeEBEiABEiABEiCBHgRkEv7u3bvvd5h8/+Uvf/kj2CABB/n7+eefb+F3j3ZCGSRAAiRAAucSYMDh3LqlZyRAAiRAAiSwlIBOwmXyPWPDVQY68ZdVB1++fBmuXvXhnkGH4dipgARIgARIwDkBBhycVxDNIwESIAESIIFdCeDke4YPGuBAvTYtAYgRKy4kuGB1yW8GHWbUPHWQAAmQAAl4JcCAg9eaoV0kQAIkQAIksDkBnIDPcAX1XaV7Bx7+8Y9/BAMODDrMqHnqIAESIAES8EqAAQevNUO7SIAESIAESGBzAjjpn+GK1ff7779/f35+jgYCNH+v4IPKk/3bt28f9HKlw4wWQB0kQAIkQALeCDDg4K1GaA8JkAAJkAAJHEIAJ+AzXLrSN3oVAr5WIWmrj0GHGa2AOkiABEiABDwRYMDBU23QFhIgARIgARI4iMBVAKC3q7n6bCAAy7WsdrByxT97jEGH3rVOeSRAAiRAAp4JMODguXZoGwmQAAmQAAlsTAAn8jPcQH25H4a0AQGRIUGBmk3+SwbaoDKsjlr5Ko97EiABEiABEtiFAAMOu9QU7SQBEiABEiCBzQiEJt+9XJDJ/bt37x7+44RM5FVnyaTeBgRERm7AAv2x/yUDZVgdeA5lME0CJEACJEACJxFgwOGk2qQvJEACJEACJOCIgE7+Zd9708m9BBZ08m4n9aU6awMWqgf9lbQNerTKVz3ckwAJkAAJkMAuBPrfAeziOe0kARIgARIgARIYSgAn4L0VxSbvLTp7BizUDvTbytdACeZhmgRIgARIgAROIsCAw0m1SV9IgARIgARIwBEBnXTLvvdmJ+8qv1UnBjJUZu7e2iS22KACypc0NxIgARIgARI4mUD/O4CTadE3EiABEiABEiCBbAKtk/8rRSH5oWNXcvC8Bg3+9re/4eHsNAYUxBYbVFD5aqcNSGQrYkYSIAESIAES2IAAAw4bVBJNJAESIAESIIEdCeikWvYjNpzcy0RettCxEbpjMm1AIeQ72ihpBh1iNHmcBEiABEhgdwJj7gB2p0L7SYAESIAESIAEmgmMDjh8+vTp1X+lCB1rdqRQAPodCjjYoIQEHbiRAAmQAAmQwIkEGHA4sVbpEwmQAAmQAAk4IIAT7xHm/P777z8CDjqxDx0boTslE/1Wu2x+G3Sw5/mbBEigLwH5V7pv3rz545ohe64s6suX0kggRoABhxgZHicBEiABEiABEmgigBPvJkGJwiEdoWMJEd1PoX5J6+seVhHm4+TH0uFvEuhLQIMN2u+4sqgvX0ojgRgBBhxiZHicBEiABEiABEigiYDe2Mt+1IY6dNKOx0bpTcnFbzSILbGJDeaL5UnpwSe26jOf3KaI8dydCdhVRdJnuJEACYwnwJ42njE1kAAJkAAJkMAtCegkeOSNfWjSPkNvqkLxOxJqSyi/nQCF8oSOhQINqkf2NcGLkB4eI4ETCWBfOdE/+kQC3ggw4OCtRmgPCZAACZAACRxCYMaNfWjSPkNvqorsdyTEnthWaqsEG56enh6+XYEyJF37Lz1jNvI4CZxEAPvLSX7RFxLwSiA+Anq1mHaRAAmQAAmQAAm4JyAT41k39rjKIRSAWAELfZd0bMN8sTx6PBZsYIBBCXFPAtcESvrctTTmIAESuCIQHwGvSvI8CZAACZAACZAACUQI/OUvf5kWcMBXGDD4kJroR8zudjjXjtzJTyjYwEDDS3UJH/0oYM13LKT8u3fv+J8LXpAem8rtc8cCoGMkMJkAAw6TgVMdCZAACZAACdyBAN7Uj54Y21cYcLIvKx5WbBgESQU+kFPKThvAGc00ZYu3c/KxUPuaibSBkk35lpYr0cG8Pgjk9jkf1tIKEtifAAMO+9chPSABEiABEiABdwRm39SjPn3SLcdWTSBtECRWQWh3LI8cx3wMNnz/YyUC1jPykXQpIyyfqgee258A63r/OqQHexFgwGGv+qK1JEACJEACJLAFgdk39biqAXVLetWGdsRsyMkjZXPzxfSccBxfm0AemC4NNCgXlKHHuD+TAOv6zHqlV34JrBuF/TKhZSRAAiRAAiRAAo0EZt/U249FztYfwpVjQ04ekY35ar5RELJvh2PyukRqJYNy+fjx43dZVVK7qRzZi05u5xLAuj7XS3pGAn4IMODgpy5oCQmQAAmQAAkcQ2DFTX1slcMqqFcM5In9VR61PebbqcGHnNUMrUEGZSt75CtpbmcSKOlzZxKgVyQwnwADDvOZUyMJkAAJkAAJHE8gdyLdE8T//M//PEzg1YZcHaGn6S0TetUve7vJxMd+6NDmwd+pFRwiv8VO1LMyHeKPDDVd+9pEyjfLN5WX5/YloB8H1ba0rye0nAT2IfB6BNzHdlpKAiRAAiRAAiTglIDe0Mt+1mYnE2hDS7r2iTfqtAysrbmTaDsxRh1i546vA1wFGnquZLD1gL+RJR5n+hwCWMe5fe4c7+kJCawhMO8uYI1/1EoCJEACJEACJLCAAN7Yz1KPy+JRf2u6dmKC9iCDL1++PKzEqJUfCj7UBkfQvlnpnNcmatnU+IDtpKY8y/gnwDr2X0e08DwCDDicV6f0iARIgARIgASWE1hxYx+agKMdOemeT9PVHpw021cpRF/rpnrUv1Z5I8tfBRl68i/1Q/nJntuZBFjHZ9YrvfJNgFdU3/VD60iABEiABEhgSwKrbuxxVYHa4AWgDTaIfS3/WQH9Ul9l73UL+Y9216Z7fb8C9XtjKOzevXu35SszXljalUVe7KIdJHA6Ab+j0unk6R8JkAAJkAAJHExg1eTNPu0XOzxsock2rnxotXEV7xK7JTCAdo5Miy6ZYJZsaE9JuRl59ZsfO70yM4NLiQ5lKPXcY2VRiW7mJYE7E/AxCt+5Bug7CZAACZAACRxIYOXkDXVLevUmH0W0/5GiZ7BB/EOfV/sb0x8KBqHdM9Kp1RCoP+bDquOebVvFpFQvMuy1sqjUBuYngTsSWD8K35E6fSYBEiABEiCBwwngzf1sV+1rFbP1i77Uf17oHWwQfSt5r+CrOmuDGDbwICtQkGGPtNWhNtfs0Z6a8ncvY+v37jzoPwnMJMCAw0za1EUCJEACJEACNyGwcoJkJ6GzkMukRiaZ6LtNjwg2iH+oZ5a/XvXI0+vn5+cHJshH0xKY0n8jelVvWqZ03+sVCNTrlbtnu/B1CmHJjQRIYB4B9rh5rKmJBEiABEiABG5DoHWClDN5Tz1BxlUOs6CnJq2j//vCCn9nce2lxwaipI1qQCB0DttwbbpXgAn19+JxJznIr1edWH6xa1bqOmVl8DcJnEiAAYcTa5U+kQAJkAAJkMBiAniDf2VK6vUDlBNK64TR6tAJ5KjJhdUnv1Wn2jk6yIA2qO6Z/qL+ndLKSutJbdffsve2ebbNG6uQPaP5SbDBfqcFdcauUyFbeYwETiPg74p6GmH6QwIkQAIkQAI3JIA32+h+7Ckg5i9Jz5xgi+3814RYm/umsY2pF6Fjes7uQ0GykU+yS2yztvL3uFeOSq5nrAcSuCsBBhzuWvP0mwRIgARIgAQGEsAJUslNOZaT9MyAguK4spdPK5XUfvtQ3aoX2Pb0mN2HymO5UW0DdVib+PuawAh+0hZCqxrwmqWrafDYtbU+coTa+sigmg+vacUIAgw4jKBKmSRAAiRAAiRwcwJ4g5+TLnn9IHQjnKOjZ56bV+927qfajDqD7UOP2b39+CCWkfSoiSXqsTZ5/h1aCYK+zJrAos5WXqm2NKr+W20uKZ/yTzhKUE0/tloil3nvS4ABh/vWPT0nARIgARIggWEE5KYUb/JtuuXGXCYpVt7M3y22DwNOwa8IXE2cpM1gXWIbeiXsPwcwT0mQLCYv9zjqzS2zMl8Oe/Vp1KoQ9f/Lly8P1ws9XrsPBZ2wHdXK9VBO6i20akPrSvej68wDC9rQjwADDv1YUhIJkAAJkAAJkMB/COhSYr1BlX2vm/KQbNTTK93LXjaKuQRyJruhusV2E7JY5F7lseXUltYn+aV6rR2zfqu/aO9VOlQXPe3FAIEEiWq32GqN0fbX2ltTDllpval/9rorv7mRQA4BBhxyKDEPCZAACZAACZAACZCAWwK5E12dPIUc0QmW7EObnYyF8thjWKblqfCVbVZv7u8Qt9rgiMgKPR2fuRIk5Dey+/3330NZLo/ZVRIisyV4calwQQapP2QV6iufPn36kUfaM1+tWFBRG6oMX1E3dIQmkwAJkAAJkAAJkAAJ3ItA7Knz1cQpRAnLXJ0PTcauyoj82gnalW0h3XgsFFhAmTZdEhxJyc7lhLb2TqNvpbJjvq0OopT6kZMfg2PCLLRJwEbahjItaScheTx2DwLh1nQP3+klCZAACZAACZAACZDAIgIymSv5N6OxyZ9Ofuy+dLKL5UNIrs5flZHytRM0nOTpUvacYAvaXJIuYWcnqqKnpHyIW69j0mbQ7xK5Uja0YqN2lUSJ7tl57QqOVP3ZVytqg2izfaS+dQQYcFjHnppJgARIgARIgARI4LYEdKJ6NQkvCTSkJkpXoK8mplfnQ/IxUKDlQ/lSx2RC99///d8PE2eV1Wtfy81O6MWeWlkpBrXntI0pp1w5sWCDJ99yfcnJh5xyXhXBdn3Vf3P0M8/ZBBhwOLt+6R0JkAAJkAAJkAAJuCSgk0DZ61YSXNDyvZa3qzzZh57a4nm192pvnwaLjJythgPaF0vbCbPouVplEssjx+0KgBzfZuZBDtb3mB0hv3LLxmR6Pi7+IqecFRy2XXv2j7atJ5B31VtvJy0gARIgARIgARIgARI4iABOckrSoyZ/V09t0caSasAP7YmMqy004UXdmG4NtuiT7dRTasyDgRg9jvaE0rUfobzilHMe7cnJH2I/qr3l2DMjj63HXJ0adDidTy4P5osTuL7qxcvyDAmQAAmQAAmQAAmQAAlUEcAJPk4MY+nRExudQKl+65Qel33J9vXr14cnyFcTcDmPuiStgQVkJmkMAJTYpHlRjx6z+5hOPI5yYukrv63eHr/Rlit5dww2CBNkNLqPXdUBz59JoOyKeSYDekUCJEACJEACJEACJDCZgJ3ge5j4oA0WB57LneiHJrEiRybrsQ252AkgnruSE5OPx9EnPI7pmE57HGWl0jMDD2gH+hRK2yf98qrJ6Zu0zxJGp/Ogf2MIMOAwhiulkgAJkEA3AnJDcPWO7ZUykRF6aqY3GjNvAK9s5XkSIAESWEVAr4myt1voiX7q2hkLNqiOVFmrG8cBO9G3eUt+qy0hf1FOrU5bTvWlAi6otzWt+q78Ez2h+sXyJemSum31saW8DbK0yAqVvbr3QKa7MAv5yWNpAq+vpun8PEsCJEACJDCZgN4Q1N6gXd306oAv8uVfY3EjARIggbsS0Ouh7O0qhtjkGcuk0rJaoXVSq+MAyhG7aje090pGSV4rK8TO5un92/6rxyv5IRvR59a0TKi9jbHok11Nc8Xr6nzuvQfaIGkGHq7I7neeAYf96owWk8CtCeBTnruAwMG41OeaAZ+DfSll5icBEjiFAE7kdXKPvtVOSnUyV1vejgP4IUqx0wZH0OZU2srtlTcmp0RfTEbucQ3Wi86cf/WocnvUEfpp054CD2ib+t9jX3PvgbaE+l4PuyhjDQEGHNZwp1YSWEpg50m73kDcaTDCQbi04SgvlaE3vSgndHPVcgOLspkmARIggZ0I2OthynabV6+zdp973bXlQr9VlvzrQrlOa57aMVHLy/5qK8kbk9VDRky2PY66cv7Voy1f+zu3XXgIPCCjWn9tuVCwQdutzau/Q8z0HPf7E7i+uuzvIz0gARIwBHQSWnuDYsRN/VkzOMrgJwP7rk/ua3yWShG/sWxqwJebsefn54f8DDpMbdpURgIk4IQAXjedmBQ0w07SgpkuDub6KisocvOmVPaQkZKP52bqQr2hdGiMVftW3puoDbLvtek9pspO3XtYnVqmpz1WB3/PJ9Cvdc23nRpJgAQqCex8Qa+xXQZzLbfjJFptl33JZgf9nLL2BlZ0rrwZyrGZeUiABEigJwEZJ/S621PuCFlqZ+n4oLZg+dBrGRqwx3y1ukQnylEbRuxLv98wwoaQzFjgYdUDoBH1gTJLgg32IUmIH4/tSaDs7nVPH2k1CZCAIYCDgTnl/meN7XYSvWpgr4FbOwDbciWDvuUlzHdiVsOZZUiABOYTkOtU63/gGWG1XgNLrpsj7MiRWTMmolwMrqCsVLqWy8wgAAbcS77fgGxGpkOBB2l3oU36CT44SdVN6QMClBXSXXOsRqb4+PT0NC0gVeMXy9QTYMChnh1LksC2BGoGAy/O1tquN5Ba3os/V3bgTZPYnrvVllP5lleJbpXBPQmQAAnECOAEgwHNGKXr4xgwiE1YU1JC13odJ+1eJu4yUS7dQhPm0UEAtL3G5lIfa/Pbj3+iHFlxkhtoQH+lTYRWq6BsTWM5Pda6L5WJ1wItWxvUarWd5ccQyL97HaOfUkmABBYQ0Au67HfbWmxvKbuKE9pcMgDXlrN+ohx7jr9JgARIoIZAaIJRI4dlvn+3E1ZhW7pqJCfoUDL+YL2E6lrGldFBgF3GLuFgbRVmNYEGlJMbxMMyuemrVRQoB9uCTcf8rG1rVj5/+yGw32zDDztaQgLbEsgdDDw6iLbnRvDVj9YnQSpn1l4GY/S3RG9tOasDmdlz/E0CJEACpQRCE1BOMEopvuS3E1Zd3ZY74XyR1DeVejo/ur5nvrrRgxqO16H+oedT3DQP7nNsw/wlaWlfsYBBiRybN+Vjjj/M45MAAw4+64VWkcAwArsNxBYEToBLb6jskyAr29tvvXHUAbnEPi0j+5ZNn3zxJqCFIsuSAAkoAXtd47VFydTvcVzsde2vt+b7d3ufoTbNqmtsY6Nf3WjhpGWVj+zRdvmd+xpLqA2o/NQedZemW1dhWH2z2keKB8+NIdB2JzrGJkolARIIEJBIcukyyYCYV4NZKI/nYzoB1oGqxFb7JKik7Oy8Ut/qo+xLB2IsO9t26iMBEiCBEIHW61pIJo89vlax+tovdWw//lczhrXUKzIY/epGi51S1vYJtL1k3Lf3RiLHbqJLggT4SgTqs/lDv1WP2KZplFGTtn6KnT3ud0P289gaAq9b4xo7qJUESOCCgEa9S5/qW7F2MLDnd/iNPpTa21K2VFdLfq1vtbdEln26VFKWeUmABEhgBIHQRHSEnjvKtMH0mnGjFzf71Hv2hH+n8S/UJ7TuZF+64SrOUHm8r5B7SXntpUVfzD6UWfrqq8hUO1vvd2P28fh8AuWteb6N1EgCJNDxf1fjQBAakHaAjT6U2ovLDiU673VDH230/8pmHaxFxg7LSa/84XkSIIH9CeB1Sa5Npde1/QmM9QDHNh0/xmoMS8en3ivqGNuZ5/EvFGwQXlp3si/dbOAJJ/s2ECPybZsp1RfLj3IljXbEyuDxFgYoh2k/BMpbsx/baQkJ3IpArwswypH0jhv6UGo/PgGQgdDjJjciLT5i2dlPlzzypE0kQAJrCXz+/PnhmrZiIrqWwHjtONGXMeCujHcY/2LBBmklaH/pRN3eO+A9DgZiUAeme7VS2xbRjisd1oer/Dy/B4E9Zxt7sKWVJNCVQK9BAeVIescNfSi1P/UEoFTWqPz2xqBUTwufUl3MTwIkQAIpAvbJquenzik/eG4PAp7HP5lM21dOxF4MDsnkXH0onaiHvp3x/Pwc1Kk6cN+zhm3QAfWUpHvaRFnrCOw521jHi5pJYBkBvECjEXYAw48BYT5NoxxJ77ihDzX21w7oNbpKy9joPt6IpGTZdqCMUmV4jgRIgARGEpAntDgJev/+/XeuuhpJnLJ17PN2fyNjNPYFtdOO8b0m6iq/ZN+79eC9Vokdmtey6W0f5c0jsOdsYx4faiIBNwT0Aix73OzTcM0XCzzoed2jrF3SarvsazY7oNfIGFXG1meuntBTk1o+uTqZjwRIgARiBOzKBrkeMdgQo8XjvQi03h/0skPkxB4EqI2xCXXrRF1WNcRkiE7Vb/c9fRdZ9l7L6kv9jrHpbSPlzSFQd7c+xzZqIQESAAJ4YdbDoRs6zCdpG3iw51XWTnscSGVAq9mQQ035UWXQrpIBNzSwl5Tv6Y/cZIX+pZXefNk2Watb5YXaea1MliMBEmgnIH3TPs1ddT1q94YSdiFg74l6241jDo7VpemrvhAaz3N1qGwrQ48LE7yHQrm9eVEeCSgBBhyUBPck4JyAHRTsDZ28F2sHGCwTSzt3O2hejw8/Io+gkgUHe9wsefBLV2nITY1utr3iOc1TsrfyxO9WmSX6mZcESCBMINQ3ubIhzIpH+xLQsUfGgxHfComtJMRx9yqNE/++3udLi90r5ktgThIoI8CAQxkv5iaBZQRwELu6oYsNJihD08scalBsP/xYI0r9l72HzdZp7c2SB79CNuCNoJ6v5W5ZqTwPN3K1PrEcCZxAINQ32S9PqFn/Pkjb07FA9iOCXCX3VmiLxz6A9mnafy3Twl0J+LjT3pUe7SaBiQR0QJC9nbzFBrOcwXGiC11VIY8awbikUDit3myd1t4stXLpwcHaYG8E9Xzpv/wS2zih6VFDlEECYwjY61hsbBqjnVLvTMC2vTuzyPFdx2Hc55RjHhKoIcCAQw01liGBBQRwUMB0zQ0dll/gSheVrT70eC2jiyP/EYL+1NSp2oJyWtO131pAvaEAgZ4vfQXCfvFe5LSwUmbckwAJtBP4/PnzwxNm9s12ppSQT0DHFY4LecyQl6bzSjIXCZQTYMChnBlLkMASAjog2H2NMSijpLxMHu07jLWT0hK9oby1PqisHq9lqKyWfYhpizzk0iNdGhQQ21Gvfer0yy+/PJzP9dV+30J0cEKTS4/5SGAsAds/a18JG2slpZ9MAMedk/3s5Rvy0nQv2ZRDApYAAw6WCH+TgFMCOiDgvnbChTJy3Q09XVY5NZPSXL2xfKpb9rVbDxm1urWcnZC33qijTz3SNW0spldl4fmr1ypCARkpr7KUI/ckQAJrCNhVTO/fvx/y/vwa76h1FwI4ruxi80o7kZemV9pD3WcTqL9TP5sLvSMBdwR0QNB9y4RLZcj+aotN+FBGjpwrPaXnUX9pWc2PMq4mvlqm517Yog0SbKj9doPahfL02Ow92oBptQO/n3EVrLIBGZHXykjt4J4ESKCNgA02sH+28WTpOgJ2LK2Tcq9SODZr+l4E6O1MAtezjZnWUBcJkECUgA4Iuo9mzDihMmSf2kI3k1JGgx36UUr9nZLV+1yuDym9JRPflJzac3YyXSsHy/XggvJq0miDprGNaLvRcykdmkf3KCdVjudIgATGEgiND+yfY5lTepiAfdUznItHkYCOqbpn30U6TPcmkJ5t9NZGeSRAAlUEbPReBoiWTQeYlJzQzWTOE3gp9+7du++jVwzk+HDFqGTieyWr9Lx957nXYN+DS6kvNj/aIOnQayKYx5bH37n5sAzTJEAC4wnYgGmva9h4y6nhNAI4lrMd5tUujq2S5kYCIwmwhY2kS9kk0IlA7xs7HGhCJoaCDbmDONo68oOSVz6E/Aod6yUnJDt2zPINTchjZa+Or/DH2oQ2SDr0CgTmSQWncvNZG/ibBEhgHAH+R4pxbCmZBGYQwLFV0txIYCQBtrCRdCmbBDoR6D0woDxrop0MS97cYIPIQtmY7h18QNnWh5LfveTk6gzxDU3Ic+XZfLP9sfrlN9og6dCW+zpLbr6QDh4jARLoT8CuzuoZMO1vLSWSAAmECODYGhunQ+V4jARqCITvBGsksQwJkMAQAjJBzZnAlShHeVguNBkuCTaILJQdSvcKPKBs9KE0jXJST9pL5cby4woQ0V3KNyZXj6M/emz2Hm2I+YdLYCV/bLP5erWfmD4eJwESiBOQa+TT09OP6zz/I0WcFc+QgGcCOLbGxmnP9tO2vQjE7/L28oPWksCxBOwENTU5y4WAE0IsY3XVDEI2ao66MN06cURZLYECtFfSLbKQpU1LMEd8Rrtr+Fq59jfKt+dCNmD+WLq0rlCOtQF/I3u5+Yltnz59euAm8nNsUn9z8sZ08zgJkMCfBOzKBumHPVdnkTMJkAAJkMCZBBhwOLNe6dUhBGTChJM3Tbe6p3Jkr5vVVTsZxqi5yJcJvD2m+mXCKTexNRtOViVdu1nbRNaIoIMN5oxahqxssW6VjQ14YN6rdAljlKW6Q3sMJKTky6Tm+fk52BdQVyqdkh+yjcdIgAReCMg1EVc2SF+rHSNepDJFAiRAAiRwBwIvs407eEsfSWAzAnaSqhOqVjdUjux1s7r0eM1eJneqAyd6dnKveWqeQFtZNXZqGStLbO4VdNCn7Oqr7CXYMOrJIOpR/3Rv/cS8V+mSyQXWv+oO7YUB5v3ll1+S3GfZH7KVx0jgrgS4suGuNU+/SYAESKAPgZfZRh95lEICJNCRQGwS2KoC5aosPFYyudTyuLcTQ/mNmz0vujEwgXlTabRZJvYt/47T2lRjT8hWG8gZtbJBdeMEXo/N3ivLnHaEqxy0HVwFY1Q+1n8qnWPHbEbURwI7EODKhh1qiTaSAAmQgG8CDDj4rlvlPHoAACAASURBVB9ad3MCsUlUKxaUq7JCx/RczR4nkqHJe2iZfKketFkn9iFduXJxIttrkooBgJErG9RH9aGX/Sp31N6uchgdkBnlB+WSwGkEuLLhtBqlPyRAAiSwhgADDmu4UysJXBII3ezJBLvHhAwn6mpI6Jieq9nLRBJlxr7VgHlK9WBZTJfKGZl/twDASBYx2Rqc+vDhw7BXTWK6eZwESOA1AVkxxm82vObCIyRAAiRAAuUEGHAoZ8YSJDCFgD6xx4m0pK+Wm+cYhzL1WwWhYzmyUnnw6b7Il8m3bqFvG+i53D3ajOnc8sxHAiRAAiTwSCAUbOgx7jxq4S8SIAESIIG7EGDA4S41TT+3I4ATaE33WN0gIDAQoK8g4DHVN3tf+g2GkM27vEqwXYOkwSRAAscTCAUbeE09vtrpIAmQAAkMJcCAw1C8FE4C9QRCk/1eT5l0mb/qECvtMT03e68BkBxyIZtzyjEPCZAACZDAawJ2ZR2DDa8Z8QgJkAAJkEAZAQYcyngxNwlMIxCa6PdUrpN1vKHUYyHdM4+V+GntKinLvCRAAiRAAn8S+Pz588N3d3BsICMSIAESIAESqCXAgEMtOZYjgcEE7ERafu+82WCG/JbN+ll6k4uvVZSW3ZknbScBEiCBHgRC39Pp9fpeD/sogwRIgATuQEC+qfbmzZsf98WS1u+s7e7/3jOY3enTfhJIEMCJtEzKT5hM638j0CADXlhrAyoayDiBT6I58BQJkAAJDCFgX6N4//59l48TDzGWQkmABEhgIwKhgK7eA+fsS14z9oyFAQfPtUPbbk1AJ9JyQTplMi3foLCBFLzg3rrC6TwJkAAJTCQQuhGWlQ29vhU00RWqIgESIIGlBOzqBLy3bU2fsMqBAYelzZPKSeB+BDCQYi/C96NBj0mABEhgDQG7soGvUaypB2olgRCBUEAQ75lOWm4f8t/bsZEBBaxXDfriw7kTVjkw4OCtRdMeEnBMQAbA0n9dGXMnFHiI5eVxEiABEiCBfgTk5jl0k9tPAyWRAAm0ELCvnGJ/LU0zOPG6Jv79739/lw/l9uScqpfSlcr2Hvm1B3sdYcBhr/q6pbWzooqpCwXP/fRwc0oe+/CQwfTLly+3vHbQaRIggdcE5Hpgr+Gvc/EICZDASgJ2wmn7LH/7uw/T1Qm92g3WcS+Zq+Qw4LCKPPV+v1ouhh2NaX8XVtbJ/eqEwQteuElgbwIy7j49PT0EHEqfvO1NgNafSuDbt2/f5cPUs55Yr7oHEv/+3//7fw99eJUtd9PbO6Bw1ReR71Ve7+cZcPBeQwfZxwDD/SaoeLFkmvWvbUBumGSS869//eugKxxdIQHfBGS1oA028AORvutsV+vuMvnXMW32vuSdfq6UiN97yb2IXBe9btiuvNqYaxcDDrmkmK+aQI9Aw+yoYrWzhQX1o10lg0ehiq7ZT7r4dQWzWFisXmQy8fz8fMSTELkxkKdXv/3222LaVE8C+xEIvUbBlQ371eMMi2XckGCwTFTl3kuuvTjGMB2fwM5kM6MtUMdaAtie1lrSrp0Bh3aGlHBBQCfV2HEwfeebHuRwgXH5aQkc7WSvBaaBL+8RbWt3zu8Z9XJS8EJ5SVvg9y1yWhjz7ExArn12ZcOdx92VdSlP/r9+/frHx+o+fPjgbjKPX8bX6+Que7nXPH3lHNbFynZM3XMInFTfDDjMaTO31oIdRtK80XlpDsjm5ajPlA0c+bQybJW94d5lRUnYm9dHd2pHYj2X2z4+IePqjddtmkf6ELjDaxSzvzaP19vctA345JbbNd8dJv99emiZFGwPZSWZe0cCJ9U3Aw47tsDNbMYO4/ldqRVYkc0K/SU60dbdgkY2WCK+nLRh3ZzkF/oiTwXfvn37sMoG/Wb6MYhBHuTBNsA2UNsGfvnllz8eDskKsP/7v//DSzHTCwlgfS40g6onEcAVR/KK087bWXfdO9fEwbZjh5E0gw4vlb3T4LGTrS+E/0xhG1Q/bJ6df6tPsueWR+DEV0SwHTDNySbbgL82IEFTeZXi8+fPf7xaIau9uJFALgHs07llmG9fAvLdKq1zuY/deePd6c61t4nt9gu5u3eantj1QiJ779tOtlqWtg3uwNv6kPq9c92k/LrLOa7e8DcxxD7FtP/6OfHbPHe5/tHPPAK7f0crz0vmQgLyYATHHzy3W9r/LGc3orQ3SMBO+IKZbnbQfjXcu/snXPRO8CHUTk71K+Qrj5EACaQJ2FfIdnsFLu0dz5LAPQnYfn1PCvfz+pT7OwYc7td2l3mMnYavVXz/joOH/Osp7xvWn3dbY/ad4EPIt1P9CvnKYyRAAnECslQfrwfyhIwbCZDA/gSwXzOIuH995nqA9Z5bxmM+Bhw81sqhNuF79JK+e9ABLyI73BSivbs20RN8CLE/1a+QrzxGAiQQJmBXze0QyA57wqMkQAKWAMd5S+Qev0+pdwYc7tFeXXhpX6u4+7ccdruI7GZvqNGf4MOd/Ar5ymMkQAKvCdh//fv+/fvvOwSyX3vCIyRAAiECp96/hHzlsRcCp9Q7Aw4vdcrUBAI26CC/77jt+PGfEy56J/gQ6i+n+hXydfQx6Zvv3r27/Qqs0Zwpvx8BG2yQ6wGDDf34UhIJrCZgVy+ttof65xE45f6OAYd5bYaa/kPA/puXO75agd9vkIvJDtsJF70TfAi1lVP9Cvk68hhO3O6+AmskZ8ruRwDbrF4H+H53P76URAIeCOA9I1+V8lAj82zQ67rsd972tn5n8je2XZ682O853A0HXkB2uTlEm3etrxN8CLE/1a+Qr6OOhSZuo3RRLgn0IBBqs7uMJz38pwwSuAsBHOO5eukutf6nn1j3O3vOgMPOtbex7Xd/tWLHC8iONtsucoIP1if5fapfIV97H5NJ25s3bx4YCk9O3F5Ixxhhu+uZlvq448q3F+J5KXzqyTabx4y5SGA3AnL9xevrbvbT3jYCp9Q9Aw5t7YClGwjgKgfpUN++fWuQtlfRHS8gO9psW8UJPlif5PepfoV87Xks9IRYWN4x2DA7qIBtNpZm4CHc2kN1dcc2G6bDoyRwFgEbWDzLO3pzRQDnSjt/944Bh6ua5vlhBOwqhw8fPgzT5U0w3mB7sy1mz442W19O8MH6JL9P9Svka49joQmbMrzDxC3lv3LwuGcA4s/WbycgfKe7x1WBMkjAJwG8Ft9hfPJZC+usst+9W2dJm2YGHNr4sXQjAVnVgBfTuyyjRZ8bEU4rvqPNFs4JPlif5PepfoV8bT0mk+2np6cHZsJPb+RCk/HdJ7ohn7DN5KaVUWsdpMrbQHTItt3rI+X/1bnPnz8/tF0JNvCd7itqPE8C+xLAa+C+XtDyWgJyfT+hDTDgUNsCWK4bAVwuJOk7BB12vHjsaLNtpCf4YH2S36f6FfK15ZhcW1LBBpEtk1nkadM7TnavfEIfZwQVcuqQgYfXlOy/xuPKhteMeIQETiJg+/xJvtGXfAI4RueX8pWTAQdf9XFLa+yNpQQdTt52HUCOuOD99NOPyeRJbeyEuhlZH7En/KHJtb0eIdtQWibz0qc9bzGfQv6rHzFmymB24CXmg4wX3vkr05a9DZa9f/+eKxtagLIsCWxAAF+fYoBxgwobZKKOu7LfddvX8l2J0+4gAXszefIqh10HkCMueAw4BPvfyQdl4ny1qiHlv702YT+IpWdPxlP2l56Ta2/uiogVweFYfewQ+CmtC81vg9TS7vgahdLhngTOJGD7Pfv8mfWc4xXea+Tk95iHAQePtXJTm+TmVTuVpE8NOqiPu900ot27NtETfAixP9WvkK8lx+xTYeHU8s57bLKL/FNpz5PiqxUNIb9SKyRK6qkmb6wu5PhJWyhgtpL7SWzpCwl4JrDrwynPTHe1DcffbX3Y1XDafR4BewO54unZDKq7Xjh2tRvr9AQf0B9Nn+qX+leztx/XE0a9J2ryxOn5+flHoBTrISftYSXE1YqG3sxq6jJWJsbfA9eYzSXHQ8EGPuUsIci8JLAvARxD2O/3rcceluMD2V2D6lzh0KMlUEY3AjbosGvHigGRG0gcRGL5PB7f1W5keYIP6I+mT/VL/SvZx57Uz5o422sY1k1OetZkOcZJbGxZBVJSV73yys043pCJDyesksMnnOLTrDbcq14ohwRIoJ4Ajhf1UljyBAIn/GtMBhxOaImH+XBCx4pVib2BjOXzePyEwe8EH0Jt41S/Qr5eHbN9zMvH9WJP47HuNC2T5ZEfQgy9aqK6Z0xqNdjR8xWTUKBn56CDfX97Rr1c9S2eJwESmEPA9v85WqnFKwG5f9AxWvY7bntavSNp2pxNwD6tOmmVA14wdruBRNuzK9NZxhN8CCE91a+Qr7FjOolFFp6f1IcmyGi7pnuueAgxEj0zOYkN9iOePa/xluuOQQfLSOqHGwmQwH0IYOCc/f8+9Z7yVO8JZL/jtqfVO5KmzUUE7CqHUz4gufMFY2fbpfGd/MRg97opujgEMtsJmvDY8SbNTpa1XntMmmOrGmYHPvFGWv2Tfc/AiuXYg1+g2Q05FGrLEoTnRgIkcB8CeG1k/79Pvac8xTaRyuf1HAMOXmvm5nbZVQ5yw3jCtvMFY2fbpe3gRGfHyWiq/e9eNynfrs6FJmhSv7vepIndsQ9R1k7KbbBN2ssqRthWbbpnYCAUdLhqS6vPh9ry7IDQagbUTwIk8H375fOsw/4EZHzUMfPbt2/9FQyWyIDDYMAUX0/A3jCesMpBLxay323b2XZhjfbvOhmNtRn0LZbn1OMYSBIOJ03Q7DVQ/CudlHubxGJb7eFfql1b+bUBm5SOnudObss9OVEWCZxMwAaIT/aVvuUTkIcEOn5++PAhv6CTnPvNepyAoxlzCGBET9K7b3qxkP1u2862C+vd7U+1l5N9S/ktk2n0/aRgg/ptJ83ir1wL5aY0Z7OT2JXBNltfar/1sTSoonJCe3w9T9mF8q0+Ztmc2JZXM6Z+EtiBAF6zT1uNuQN/rzbKqga83/FqZ8yu/WY9MU94/EgC9kZUfu+8bX2x+OmnHxe7HetgZ/ZXvE/2LeU73pgJg5M3ey0Uf6+uh/ZJ2epJbKq+Qv71WJEQekXF22q50CqUk9syfSMBEogTwPF8ZYA4biHPrCKAbWOVDbV6z75Dq6XCcq4I4BOq3Vc5bH2xYMDBVb9AY3ZuV+hHSfqOT4TtpPxqpQNO8D08KcN2Ggp+WP8kf6/VDiJH9feSWdJeY3lDwYYQm1h5HicBEjiLgF6nZM+NBJDAzm2DrRlrkmmXBCTCu3MnQ6g7+7Gz7VIHu9uP7cimT/bN+qq/cTIt/t9lk+shTp7F99hKB2wXHp6UoT2x+ooFHWL5c49bucLQw2bbMYMNHmqFNpDAGgJ2VdoaK6jVK4GcMdSt7V4No10kgASwk4WWw8pTonfv3n0PnUM5K9O7DyRYBys51ure3f6U3yf7FvMbfS6dpO1wvYj5LcdDk+fQNx2QUUrerHMl9lgfe9g4QmaLXXZMKG3HLbpZlgRIwB8BDEB6WJXmj9C9LcKHDTKe7bTd57HQTrVCW18RwE4WejKlF+nQuVfCFh1QG+Wme8eBpGSysAhxUu3u9qecO9m3mN8tPmtflOvFVZBSghPyLYEe3xOI+VJzPGelQwujGpuuypTaU5r/Sr+cx7Fk5Q2bfZVixzEhhzfzkAAJ5BPAa56HVWn5ljPnDAI7v2LOgMOMFkIdzQTskyk7ScCLdLOyQQLQxh0HErR/EKKhYne3PwXnZN9ifrf4jJPOqyClBidEn+QNrSSI2Tj6uL0uin14bWxh1MN2G6wpsUfKluTPtdfesCGvXBmt+WywQfzccUxo5cDyJEACjwRGXPMeNfDXzgRknNi1jTDgsHPLu5ntqUnCDh1wBxtTTYr2p+isPbd73dTQa/HZTtRTT7pRj6Y9rXaQG5DYtVHtlf2KTTipDWhjyh4NUmg53feyP8Wrl44rORjEEv/4KsUVMZ4ngXsQ0Oud7LmRQIjArm2ELTpUmzzmkoCdJKCRO3TAHWxEpjZN+y0RH79HPQn24V3citb2mPukG/Vg2q4miFs6/oy9NmoABe0db8VrDdauK3tCT/6lTO8JubVr5ioH2197+/a6FniEBEhgFwJX18hd/KCd4whg8F7H+nHa+klmwKEfS0qaQCB2MY4dn2BStoodbEw5Q/tTdNads09L11kyV3Nreww96Q5NPFHP8/Pzjyf2clwGfi9bKICCtq+yE23ANNoj3HE1BOYbNSHHm7ZZ9RgKqCAHpkmABO5NAK999yZB72ME7Fgfy+ftOAMO3mqE9iQJ4E0iRvZ2uEjvYGMKPu1P0Vl3Dutl1ORsnXdxzeh3PFf6jH3SLdcXG3SwemwZmz+tcdzZUADF2j5Oe1wy2oBpKSET8FigQfKOfHXF1mPcgz5nQsGGO/XXPhQphQTOJmCvkWd7S+9qCMhYv2M7YcChprZZZhmBWGRvh863g42piqX9KTrrzu1eL7XkevltJ5426BDSg4FPm7/Wnx7lrC8h23voKZGBNmBaZKSCDZpX+I76UKfqkP3oza5EYrBhNHHKJ4H9CMy8Ju1HhxYrgR3byfhRVulwTwIdCMQiezt0vh1sTFUR7U/RWXdu93qpJdfTbztRl0mubiE9qfxabtUegyFo+6qVGCF7dLJtOaK9Ni15e2+oo7dslMfvNiANpkmABGIEZl2TYvp5fA8CO7YTBhz2aFu0EgiEOlroGBRxkdzBxhQo2p+is+7c7vVSS66333byq3bF9MTya7lVe1wFhrZjEGWmbSF7cvRbvmJ/76AJ8smxqSZP6FWKGjksQwIkcD6BGdek8yme7+GO7YQBh/Pb5XEehjpa6Jg3x3ewMcWM9qforDu3e73UkhvhN8rUyS0es7amztm8s37bVWBoo/o0yxbRE7InV7+UxRUSvYMmyCbXptJ8fJWilBjzk8A9Cfz2229bvpt/z9pa6/WMsau3hww49CZKecMJhDpa6NhwQwoV7GBjyiXan6Kz7tzu9VJLDv3uNZEOTW5RD9pql8njudVptDnk02z70B5Jl2x2pUNJ2au8aNdV3przto3oqyQ1sliGBEjgbAK4Guzt27dnO0vvmgjguC5j5A5b2ci/g0e08XgCoZvE0DFvIHawMcWM9qforDu3e73UksMBV9I9ttDk1vKVSWToY4c99PeSgTZbn1bcnKA9ki7dsHxp2VT+UXJFp6dXKWJtFv0fkR75X0ZS9cpzJLAjAVwN9fXr1x1doM2TCGBwqtf9z2jTy0f+0RZRPglcEMAbI80aOqbnPOztky4PNpXa4J1xyp8T+Mf827leYj7lHLcT6ZwyOXkwkBHSgTeFyt7bk2u1S/ay2ZuTXitCcnhKHrRHbcota8uXlEvlHX1NsO1kRRtZFWiw9c3AQ6ol8hwJ/EkA+w2ZkECKgH1VMZXXyzkGHLzUBO3IJhC6KIeOZQuckNHefE5Q2V2Fd8Yph0/gH/Nv53qJ+ZR7HIMDnz9/zi2WzGcn55Yv6tRz3iZUapfsZRv9LYQkUBNw+Pjx41X2V+etP68yVBwYeU2wwYxVwYanp6dXwR5kuSLtra9UNB0WIYEhBLA/DlFAoUcR2K29MOBwVPO7hzOhThY65okG2rfi5rMHC/Shh7yZMtD2XfmHeH358uVhQhHKc/IxDA5IHfd4XcA+OcC2Iyztqgc872UyhTZp/Vu7e7BS2Vd7tEf4lm5YvrRsLD/K7HlNkGCDnejHbBh1PGSD+NvTz5DtNoiDjDEtQTu5dnEjARJ4IYB95OUoUyQQJrBbe2HAIVyPPOqYgO1kO0y6rM2O8UZN29mHnW2PVsj379/xBr/myXFK9g7nZPL6/v37H0EXmcj02EKrGKQN4WYn8NrGetmAukrS9uk6lsUAzUw7lY1liLal0q3lrewUI5u39Df2SbF79CTf2hcKNsywwTLFOoulvQToLEP+JoEVBLCfrNBPnXsR2K29PN5B7cWa1t6UgO1keIPnddJlbd6x6nb2YWfbU20F/ap5cpySvcs58RsDBD1erYgFE0JMQnlnrh6wNuH1UNoHbpbVrAkftlO0JzfdWt7qSTGyeUt+20n3jIk+2rcy2BBa1YEBLqnD//qv//oRHMQ6ndUOkRXTJOCNAPYJb7bRHn8E8L7n27dv/gw0Fj3ejZiT/EkCHgnYizL+9jrpQhs9Ms2xaWcfdrY9VTen+pXyOXTOTmx6TPhxMFfOId16DG2QsrM/zKh2qK2yD0140U7JI7aO3tCmUl12El9a3ua38kKMbJnc36MCGTn6VwUbxDbrtzKV8fj5+fkhyBA6Nqsd5nBkHhJYRaDlOrnKZupdR0AesGqb+fDhwzpDMjUz4JAJitn8ENAOJnvZ7G8/lr5YsoONL9aGUzv7sLPt4dr48+ipfqV8Dp2TSYx9taJ1wh9auRDSrcfEBgxSzJjIq27cX7WJ0ISvlRXqD6WvbAqVkWOhSXQsb+5xOznOLXeVz77ap5Puq3K9zlu/ZumXtoP1G9KL59XfUP/iSgelw/0dCYT6yR050Oc8ArKqYac2w4BDXr0ylyMCtoPZ345M/WHKDjb+MDaS2NmHnW2PVMcfh0/1K+Vz7Fxowt86kUa+kr7a7CTqKn/v83bSm5I/MziCHFM24blQsCE0mcUyV2nLp1Ue6sMJ/+xX+0b6hT7atNUb6yOp+sd2KPlWBeqsb/xNAjMJ/Otf//oxeZTAGzcSyCGQurbmlJ+Z5/oOaqY11EUCGQSwg9mnKxnFl2RBm5cY0EHpzj7sbHuq6k71K+Vz6pyd8MvkpSXogHwlnbNhmRbdObowj52gX016LauRtiITtNmmxQe52cb8mm4NDpTysbalfst3Q9RO2Uvwa9Y20q8rHzDIIn7H6gjZWJm2HUrekW3R6udvEvBAQPqO9pO///3vHkyiDRsQwIDtzHGnBk3eHVSNZJYhgUEEsINhWi7WXjcdSDzbeMVuZx92tj1VL6f6lfL56pydwLQEHWquL1hG0rM2O/nLufmwto6a6KXaaSrIoOViE9lctnZSLnJz+OTIt0/5rwI9OTJL8tTUe4n8WF5hqvVzxRPzxeTNaosx/TxOAisJYD/+v//7v5WmUPdGBN6+ffvjOuz9w5F+Z2gbVThNnUvATihybmbmWvha2w42vrb68cjOPuxs+2MtPP461a9HL8t/2WuETGZqJtMoJ3fSi2WkfkZvoQl7ra21nK58xMkkttmcdK4vMRtCwYZWmarLypbviPQKZKiOqz0y7OVXSqf4/O7du++h/0oRKif50cZQHjlm+420GW4kcBcCOX3kLizoZz4B+Viktp2vX7/mF1yQc/zd0AKnqPJ8AtrB7N6r52inVxuv7NrZh51tT9XLqX6lfM49F5rA5AQddEKVkzdkS+4EK1S25hg+GZP2UPqEPcSpxg5bRjjEXo/AdhtK95g4x/T3kK2+Wvazgw12dYXaNXJvfZb6CzGN8U/ZZttibR9M6eA5EvBIAK+DHu2jTT4J4H+d+t///V+fRv7HKgYcXFcPjYsRwIszpmP5Vx/fwcYrRjv7sLPtqXo51a+UzyXn7ARGnprKJC216YSq5mm/TLJyn/ymbMg5F5rQSbChZtJrOfX4bwGlwYbQpDWHQyiPTFRtPUhf6alD+GP/6yk75FPomLZVsaM00BSSd3XM+qz+Y7lQu9R8OYxwNUxNH0RbmCaBXQhoH5E9NxLIJSBBBm07EnzwvLFle64d2hYloB3M7qMFFp9AOxebUq1+Zx92tj1VYaf6lfK59JydTAsz+chfbMMJj+SVifNVkEImuKEJds4EK2ZH6nhoQt064cQnJdquWgIPIe61AZEUCzwXqwfxp3dd4GRf5K/YtJ5kXxNoKrXZ+oxcU+wx35VO226kP3IjgdMJYF8+3Vf614+AvEahbUder/C8rRklPROhbVsQ0A5m916NRzu92nhl184+7Gx7ql5O9Svlc805O4kRbrHJdCgvcs5N957git+xSV2PibxMWJ+fn3/cvKCfMVY1ddG7TOqJuvgwoh7sk/4ROnI4YR3l5G/JY31W3Vf8NZ/uc9qS7YMtdrMsCXgnsOLVKO9MaF8eAflQpF5b5QOSnjcGHDzXDm2LEtAOZvfRAotPoJ2LTalWv7MPO9ueqrBT/Ur5XHtOJtTyUT9kFnt6aic8WCYnPWICav/1otrRW1eO7zmTxtp6KikXWumhXHoEYUK2yATbvq4RyjfjmPoq+9FbaHUD6i9Jx/od+oDy8DjTJHAaAexbrSvVTmNDf9IE5L5Gr5UyLnnexo9Snr2nbdsS0A5m914dQju92nhl184+7Gx7ql5O9Svlc8u50FP81OQ5lB+ZY3rUBHfkqoYUy9zAw9XrJikdNeeunqiPqge1FScHUv+9Az6qJ2eP7S8nf0se1NUjfWUL6rjKy/MksDMBbOsy5nAjgRICOCaVlJudlwGH2cSprwsBvEBjuovwAUJ2sPHK7RU+xCZbaIuntExeZ07A0Per+uP5FwK9v1fwIrlfKtb2Z//rxZzAA7ZDSY/oBzEeqnvGxN++VjBDZ6pFqe+yH72hrlQ6xQTLXdlbkvdKFs+TgGcCbOuea8e/bbjizrO140cpz97Ttm0J2A+76QXbq0Nqn+x33Xr7cDWBQH07p0dMvrQNIRc9xv01gdTKhdSKh2vJ7TlST/BHP73Psb4mAIHtNJdvigPKm8VE7MEbO7Fh9YYcRtuCumw6FWRQu0rfU0cdKoN7EjiRANv6ibU6z6dd2s/6EXNenVDTQQT0pldudHbobDvYmGoe9sleKq+cu0swAeu1Jt0ajECdwpxbGQG9jiBHTedOjMs0hnNfTa5nTarD1oWPpoI2ynDkPmeSG7a87iguWxW/ZusPWY18Q+d7HkNdki7dkJ+056sN9V3l5XkS2JXAv/71rx/3sDLmcCOBUgK7XCvLR41SEsxPAoMJbEgzPAAAIABJREFU7NDZdrAxVU14syi+yMCIPo1M95hsoX2jJuarJ2A5H2JL1fGdz6UCD9reR70qI+3RPjnX9tqj7c+u15H9YCUPrRPZewg2SL2iTaPrGXVJumSzAWtpI6nN5k/l5TkSIAESuDMBvDZ75lA2anj2hLbdlsAOnc2zjStXI8yaQOArODMn5iMnX9imNH3bi0Anx68CD8K5deXD1WoGrUsvk9pOaP8Qk8NX/de9Bw6lrwP0ZJaSpYxkP3pDXXLdzt2kvduA2lVZG+C+ys/zJEACJHBXAnht9sxg/Cjl2XvadgSBHTrbTBtXBhDQz1nBhJxGjBMdDxMYsbl3MMKLXzn14T0Pthds06PTrEN/LcNOmEsm26O9wfY4U9fVCgW0xQYPcto4+pWTH/UxTQIkQAJ3IoDXS89+M+DguXZoWxaBHTob2nhC2lMwIauRMBMJVBLoHRgK9X/2p8rKmVDMTphLJtujzcOVWxIkG7lhu83VY1+NyA0e1OjKtYn5SIAESOAkArtcLxlwOKnV3dSXHTob3hiivV7SnPDctPPQ7SICPVc+5E6+igxk5u4E8Brtrc7w37uOflUMOeRAtitDpHzuVqorVy7zkQAJkMBpBHa5XuaPAKfVEP05hsAOna3nRAX9jaUZQDimedMREiCBRQTsE/pFZkTVymoLDGZ//vw5mrf1BI41V7JCwYbcYI135le+8zwJkAAJzCRQcm2eaZfVxYCDJcLf2xHYpbNtB5YGkwAJkMCNCdjXKTyiwFUOMhaOerWiZJy13EqCDaUfmPRYJ7SJBEiABGYRKLk2z7IppIcBhxAVHtuKwC6dbSuoNJYESIAEbk4Ax5bcSfNsZLLK4f379z/+RaaseBjxr3+RRcpH+x89SrjVBipS9vAcCZAACZxMAFe5/fbbb25dZcDBbdXQsFwCuTdCufKYjwRIgARI4N4Edlrab1+tGBF0yBln7asU8mpfyYY6SgIVJTqYlwRIgAROIoABZwn4et0YcPBaM7QrmwDepGQXYkYSIAESIAESiBCwT9sj2dwctt8JkqBDr5tPG3zBMTeVLvmPHlaHG7A0hARIgAQcE5AVbXodfvfunVtLGXBwWzU0LJeAdjTZcyMBEiABEiCBVgI4ruzytN0GHcSHHt90ePPmzY8bWuSSSpcwsysjRC43EiABEiCBawL//ve/H67P1yXW5OBVfQ13au1IAG96OoqlKBIgARIggZsS2HVcCQUdJGDQ8l2HkEzkY9MlwQZpXnY1SWn5mzZRuk0CJEACfxDAa7BXJAw4eK0Z2pVNYIeOlu0MM5IACZAACSwlsPvyfvtNBx0jWwMPvStFONvVEww29KZMeSRAAqcT0Gu87L1ufi3zSox2uSOwQ0dzB40GkQAJkAAJBAnYJ+7BTM4PplYleAk8WM6eb5adVzfNIwESuDGBHeZBDDjcuIGe4voOHe0U1vSDBEiABE4mYFc37P7E3WPgIbSyQcbx3Vmf3C/oGwmQgF8CO8yDGHDw235oWSaBHTpapivMRgIkQAIksJCAfeq+0JSuqj0EHuQ7EvYVChm/S/99ZlcwFEYCJEACmxPYYR7EgMPmjYzmf9/i66ysJxIgARIgAX8E5Gm7/CsxmQyftrohRPsq8NDrX2mi7tiKBg02lPz7TJTLNAmQAAmQwB7zIAYc2FK3J7BDZG97yHSABEiABA4jIBPhp6enP4LWP//886v/lnCYuw/upAIPOqa2fushFWgQHXyF4qFK+IMESIAEqgjoNVv2Xje/lnklRrvcEdiho7mDRoNIgARI4OYE7OsTOJbcZTKcE3hALq1peX2CKxpu3vHoPgmQQFcCEjDXa/O3b9+6yu4ljAGHXiQpZxkB7WSy50YCJEACJEACOQRw7LDpnPIn5ZEgwPPz84+bVsujx++7BHFOahf0hQRIwD8BCeTqNfrDhw8uDeYMzWW10KgSAtrJZM+NBEiABEiABHII4NiBaU6Mv3/vufKBPHNaI/OQAAmQQB0BWdWAY1idlLGlOEMby5fSJxDw3skmIKAKEiABEiCBQgI4dmC6UAyzkwAJkAAJkMBSAt7HMAYcljYPKu9BwHsn6+EjZZAACZAACfQjIP+NAccOTfNpfD/GlEQCJEACJDCHgI5hsve4+bTKIyna5JaA907mFhwNIwESIIGbEgh9MDIVbJB/m6n/PvOmyOg2CZAACZCAUwLe50IMODhtODQrn4D3TpbvCXOSAAmQAAnMIIDjhqat3tC/dZSvgfO/LFhS/E0CJEACJLCSgI5jsve4+bTKIyna5JaA907mFhwNIwESIIGbEsBxQ9LylW/dQoEGzY/5ND/3JEACJEACJLCSgI5Rsve4+bTKIyna5JaA907mFhwNIwESIIEbEpCAAo4bkpZVC6lAg+SRYANXN9ywwdBlEiABEnBOAMc0j6Yy4OCxVmhTEQHvnazIGWYmARIgARIYSsB+v+Gvf/3r9zdv3rwKQujYkvq2w1BDKZwESIAESIAEMgjoeCV7j5tPqzySok1uCXjvZG7B0TASIAESuBmB2H+nwHFE0ww03Kxx0F0SIAES2JSAjluy97j5tMojKdrkloD3TuYWHA0jARIggZsRsKsbcPzQNAMNN2sUdJcESIAENieg45fsPW4+rfJIija5JeC9k7kFR8NIgARI4GYEcLyw6VigQb7twH+JebOGQndJgARIYCMCOJ55NJsBB4+1QpuKCHjvZEXOMDMJkAAJkMAQArHXKWKBBjUiZ1UEjkOnpeX7Fr/++qvi4J4ESIAESMAZARx3nJn2hzkMOHisFdpURMB7JytyhplJgARIgAS6E5BVCk9PT68+DHkVbBBDfv7551flcNy5U5rBh+5NkwJJgARIoJkAjkPNwgYIYMBhAFSKnEvAeyebS4PaSIAESIAELIHQf6HI/ReX//jHPxhw+OmnHwwkAMNtLAFZURJqs3i/U5tm0Ghs3VE6CawggNeDFfqvdDLgcEWI590T8N7J3AOkgSRAAiRwOAEbNMhZ2dCK5ISxyXJTn1rZrC7f+l2OkQEBZTxyz6DR6hZI/STQlwBeL/pK7iONAYc+HCllIQHvnWwhGqomARIgARJYROC0sWk3f3YPCiDvEelF3YJqSYAEBhDAa8QA8c0iGXBoRkgBqwlgJ+OHrVbXBvWTAAmQAAkIARybTiAy0h9ZcTDqFQK0e6f0x48fv+e+9pPbvtD/3DLMRwIk4J+A977NgIP/NkQLLwjgB724TPACFk+TAAmQAAlMIbDqBrD1dYEYnJH+7BhsGBEQiLHvdXxkHfaykXJIgATKCXjv2ww4lNcpSzgjYN8xdWYezSEBEiABErghgVU3gPpvPCUA33PV30h/7DiOulrSsaAAyrxT07yr33eqY/p6TwLe+zYDDvdsl8d57b2jHQecDpEACZAACSQJrBqXUG/PVX8oN+n4BidP8qUE9139LmHEvCSwIwHvfZsBhx1bFW1+RcB7R3tlMA+QAAlkESj98Bv/5VsWVmaaQGDVuIR6Jd1rQ7m9ZK6Sc5IvJQzv6ncJI+YlgR0JeO/b/UaiHWuHNh9DwHtHOwY0HSGBTAKlgQLsw63pnk91M91lNhJ4RQDb8auThQdKvsuAeiXda0O5vWSuknOSLyUM7+p3CSPmJYEdCXjv2/1Goh1rhzYfQ8B7RzsGNB05nsDKQAH249b08RVFB90TwDbcaix+l+FKFuqVdK8N5faSuUrOSb6UMLyr3yWMmJcEdiTgvW/3G4l2rB3afAwB7x3tGNB0ZCsCp/yrudiH32xl8Dpgidznd2tbH/EqTq/2KL7lyvry5ctDXinXa8u1oZe+kXJO8qWE0139LmHEvCSwIwHvfbvfSLRj7dDmYwh472jHgKYjWxFY/a/mcgMFvaDyOtCL5H5yerT13q/i9GqPurpB5aVqx+aVMr021d9TZi/bSuWc5EuJ73f1u4QR85LAjgS89+1+I9GOtUObjyHgvaMdA5qObEWg9l/NzQ4U9ILK60AvkvvJqW3r2GYk3XND2S1yUc7f/va3pCjMq+lkgYKTKk/2u28n+VJSF3f1u4QR85LAjgS89+39R40dWwVt7k7Ae0fr7jAFkgAJvCLA68ArJDyQQWBUu+klt0QO5tV0BoKsLCpP9rtvJ/lSUhc7+l3ywdQSFsxLAicR8N639x81Tmot9KWagPeOVu0YC5IACWQT4HUgG9XRGUsnKKPaTS+5uXLstx60XK/KVnmy332b7UtpmxzFd7bfPfzQ14R6v/LUwzbKIAEvBLz37f1HDS81TTuWEvDe0ZbCoXISuAkBXgduUtEXbpZOUEa1m15yc+Wo35hf0r02lNtL5io5s33Rulk9aZ7td4/63dHmHn5TBgmUEPDeT/qNRCVUmJcEOhPw3tE6u0txJEACAQK8DgSg3OyQfcqf4/6odtNLbq4czIfpHAY5eUbIzNE7Is9sX2brizHzYkfMvtDxHW0O+cFjJDCSgPd+woDDyNqn7GkEvHe0aSCoiARuSqBmonlTVEe7rU+SdUzIcVbzyr7n1kturhzMh+lff/21i1sos4vAhUJm+zJbXwytFzti9oWO72hzyA8eI4GRBLz3k76j60iSlE0CCQLeO1rCdJ4iARLoQKBmotlBLUU4I4BjwdV/dFDTsYwe67HvJTdHjg24ydJ9LddrGb/Kk32vIEYPzjUy0Jea8qVlZuuL2TfLjp7frJhlc4wZj5PADgS89xMGHHZoRbTxkoD3jnbpADOQQAWBnjd1FepdFcFrQO5E05UDNKYLAWwHuQJryuTI7iH3y5cvPwIHIi+22YCb/TehsXIlx0cEMUr098zbo25y7bHBoNxyI/LN8lvbY49g1yybR/CmTBKYRcB7P4mPXrMIUQ8JdCDgvaN1cJEiSOAVgZ43da+Eb3aA14DNKmyAubUTu1Ftp1Wu+PP09PQQcECZsbQG3PB8D9wjghg97CqVkRvEKZUby6/Xaa2PWL4ZxzFoJPU5alNfZd+69ZTVagvLk4BXAt77SfuVwCt52nUrAt472q0qg85OI8B2/4KaLF5Y3DVVO7Eb1XZa5Vp/UF4qrfWPefRY636EzFabSssj148fP5YWL86PzDQYVCykU4FPnz79CGD1WH0QMwt9juXJPd5TVq5O5iOB3Qh47ycMOOzWomhvkID3jhY0mgdJoJEA2/2fAGufbDfiZ3FHBOxT65KJ3ah+1CoXy+em0W8s06uqRsjsZVuuHPTh999/zy1WnQ/1VQvpVFD8nWFPTx09ZXXCSDEk4I6A937CgIO7JkODagh472g1PrEMCaQIcJL9QgefWMq1gNv9CGAbKH1qPWr8aJWL5WvaNZbv1SJGyOxlW66c2T7M1nfFYYY9PXX0lHXFhudJYFcC3vsJ78x2bVm0+4GA9472YCx/kEAHAjjBkvZ/5w37Pz7hvTOTu/mObaD0qTWW7cmtRa4NKIqs0q1Ff0zXCJkxXaOOz/Zhtr4rbjPs6amjp6wrNjxPArsS8N5PykewXWuCdh9NwHtHOxo+nVtCANv83SfZyGJJZVDpcgItbaClbMrxFrk2oCiySrcW/TFdI2TGdI06PtuH2fquuM2wB3W0/gtVlHXlG8+TwF0JeO8n5SPYXWuSfrsm4L2juYZH47YkwDb/Um1k8cLijim7GqCUwaj20yIXy0q6JqiIMkqZxPKPkBnTNer4bB9m67viNsMe/G8YrR+nnGHvFTOeJwHvBLz3EwYcvLcg2pdFwHtHy3KCmUiggADb/AsssnhhcceUXQ1QymBU+2mRi2UlXbOhjJryoTIjZIb0jDpmPy46Sg/K9cZshj09/4XqDHuxvpgmgR0JeO8ndaPYjjVBm48m4L2jHQ2fzi0hwDb/gp0sXljcMYX172UlgNQD2lVaL1hW0jUbyqgpHyozQmZIz6hjGJwq/bhorU3emM2yB/W0vFaBcmrrgOVI4HQC3vtJ3Sh2eq3Rv+0IeO9o2wGlwe4JsM2/VBFZvLC4Y6q1/lvLx5i3yMWykq7ZUEZN+VCZETJDekYdQ/tLPy5aaxPqrJXRs9wse+xrFTVBh9bXpXpyoywS8ExgVr+uZVA3itVqYzkSGETAe0cb5DbF3pgA2/xL5ZPFC4s7plrrv7V8jHmLXCwr6ZoNZdSUD5UZITOkZ9SxFfav0Jnih/bUBAFSsvGcfa1CAhAl+iTY8PT01LRSCO1hmgROJoD92qOfdaOYR09o060JeO9ot64cOt+dwIr3kLs70VEg+39HmJuJankCKmXfvHkzbELT0i6xrKRrNpRRUz5UZoTMkJ4Rx1raSos93pjZlQctvl2VtUEHZFGarnld6so+nieBUwhgf/LoU90o5tET2nRrAt472q0rh853J7DiPeTuTnQUyP7fEeZmomzAQIJxqU2esNoyo9pPi1wsWzPRGjW5RrtSnD2ew+um+DFr88bMBgFGc7D6kEduuqYPjPaL8ssJhIK8cj0uWflSrvUeJbAvefR43hXXo/e06RgC3jvaMaDpiAsC2N5nvYfswvGIEcgjkoWHDyXQYzKj7af3pEblyr50aykrukZNrlvtKuXQMz/a3ruuU3ai3lS+medm29TST2fW1cw6uKMue13CdpiT9hKcuApc5/jSIw/yQHke21b5KOjRC9p0ewLeO9rtK4gAuhJge3/ESR6PPO72q2UyI21n1ISmpV3isvea+kTdPf1Dubs9lUTba5jWllmlN2WvR5tS9vLcGQSw3TH908PrfC087Ko9j62FAQePtUKbiglgRy0uzAIksBkBtvfHCiOPRx53/CUrfZ6fn7Nu4OTfIc5YGdTSLjWIUhssaNGdaj8YCJH0TtsoJlcMUK9N4xPKKzk9z2M9SlvjRgIzCGD7F316ncPjTLcHImbUZakOBhxKiTG/SwJ4gXJpII0igY4E2N4fYZLHIw/+8kFgZbscpdtOEHyQzrNiFJMr7Ti5Rxs0vSJw8+nTpx/BuRX6r5jx/JkEtM3LvnSz1x6UtSI9K3Ad45TiESuz8nh5ja+0lrpJIEIALzaRLDxMAscQYHt/rEryeOTBXz4IrGyXI3WPlD2y5lbZnZoYiE21q1haWMkKn1U8Wuxm2b0JYPBN+gW3dgKh60u71P4SGHDoz5QSFxDgwLkAOlUuI8D2/oiePB558JcPAivb5UjdI2WPrLld7R7FBHns9j2OUUwodywBrqwZxxf78zgt9ZIZcKhnx5KOCHjvaI5Q0ZQDCLC9P1YieTzy4C8fBFa2S3yS2JvGSr9qfRn1b0Jr7fFQDtsIX6vwUCPn28CVNePq2Pt1mQGHcXVPyRMJeO9oE1FQ1Q0IsL2/VDInEi8smPJFoKWfzv63a/Lxwi9fvmQBbPErS8GATPbf8Q1QsZ1IuxR7Owdo8JYEMNDF1yr6VaH36zIDDv3qmpIWEvDe0RaioerDCMikgO39pVK9TiQkEGL/VRXW2y7pVV/Rf6nhfVO71HGundoWMP8utYM2r/hmgldOyMWrjbTrLAJ8rWJMfXrvyww4jKl3Sp1MwHtHm4yD6g4mgBNs+Ury3Tfs+6smEqcEF5Alprncuq6X4ZM85HlSuo7M/FLIfL52HxqvrlM+rKQVpxPgaxVjatj7NY4BhzH1TqmTCXjvaJNxUN3BBLCty8B99w15rGAhN/FPT08Pq07QplPSK9jurtMuWS9tC7P+7ZpcR56fn6va8C51VMr+jvl3qUvauT8BDMbytYo+9YnXrD4S+0phwKEvT0pbRMB7R1uEhWoPJMC2/lipq3lcvTaxatXFI6XyX7iSRhhzuzeBUPBkp7aNExy8ZjD90x+Bpp3q8t498QzvvbxWoat+9HWxnenitcyjH7yL8FgrtKmYgPeOVuwQC5BAhADb+iOY1TxwInbSTTtyPcmvx9bDX3chgP0U2/Yd0+zPd2n1fv308loFPjDY/dVBvJZ5rHkGHDzWCm0qJrCyo2mEFG1g+s+nJikOJ0SUixtqhwLItIO47UWQx5gqHMV1xPWS15IxbYBSSYAESGAUgVFjTIm9NhBZUtZbXg88U0wYcEjR4bltCKzsaBghRTuYvg46pBhxEhHufsgsnONeR8mjf31LUKAX1xEBBrQN07xm9G8LlEgCJEACIwjgtXuE/FyZ+LqVBCB23bzwjPFjwCFGhse3IrCyo9kIKdrCdFvQIYff3SYZyGSrTjrA2J4T4wHmbSuy1/cbfv311yUf1LzbNWHbhkbDSYAEbkug5V5Gxv537959lzGmdfPyPYlWP1p4turOKc+AQw4l5nFPwHtHcw9wsoG9gzS7v3tXgp9t/YVWr4nxi0SmhAC2sZL3vUtWM5TITdVK7Fpyp2tCig/PkQAJkIBHAi0rC3Ts73Gd9/I9idY6wnG7VdaI8gw4jKBKmdMJeO9o04FsrjA2icB6tukeke4dsKHfO9g70kZk0WsCO9LeXWQj1xybcwINo+sndM24yzUhp46YhwRIgAQ8EWhZWVA6Rl353RL8uJI963xvJr3tZsChN1HKW0LAe0dbAuUGSnGQ6BHp3gEZ2/pLLa1i0XM554s3flK5XHMCDR8/fvwuT5BmbfaawKDDLPLUQwIkQAL5BFpWFuSOUbnWtAQ/cnWMztebSW97GXDoTZTylhDw3tFKoJw+mSlhcZXXPtW8yr/7+S9fvjwsd9/dn1b7V/X7nss5WxmMKH/F9SrQMHo1Q8pne024SyAyxYTnSIAESMAjAQwQy7U7d7sao3LlaL6W4IfKWL3vzaS3Pww49CZKeUsIeO9ouVDkRv7p6emPSSVvlPOonVL3Od7qRFd8lifHd99W1f0qva31HQsU2I8spvzDaxTmk3SvQAPaaW3LYWCDDjllmIcESIAESGAugdqVBTj29LJ4hMxetuXI8W4/Aw45tcg87gl472i5AHFCKT5xuyZwSt1fe/r4Mb+Zy9RzbFuRZ1Xdr9LbwjgVKBB/JMCprx/E/IvJ6BVoEP9COmqCrzEfWhiyLAmQAAmQQD8CtSsLRlzfR8jsR+paknf7OaO5rkPm2ICA946WixD96HkTn6t/x3zIbEf7S2y+k685XFbxWKU3h0koT2gSjz5oWoMO+lv2uNmA6IhrlNWhtmgwBO1JpbWc9SFVhudIgARIgATmEqi5VteUufJqhMwrnT3Pe7f/8W6ip+eURQITCXjvaLkoTvEj198e+e7E7E6+5rSNVTxW6c1hYvOEgg0YKLCvH0jQIeSfyMHjKMPqrP1tdaC+0lUOWLbWHpYjARIgARIYSwDHnNzvOIy4vo+QOZbco3Tv9jPg8Fhf/LUpAe8dLRfrKX7k+tsj352Y3cnXnLaxiscqvTlMbB67YiAUKLBBh5B/Vo7VU/NbAgzyjQb9ToPVYe0q0RHyoaQ885IACZAACYwnUPMdB7y+l65+i3mEMmN5PB/3bj8DDp5bD23LJuC9o+U6coofuf72yHcnZnfyNadtrOKxSm8OE5sHbQ0FGzS/ndxrOTlvVx6k5Ki8nD0GGPApl+hWHWqH7Eu22nIlOpiXBEiABEigjUDNdxxwvChd/Razdvcxw7v9ZSN4rJZ4nAQWE8CLT+6SrMUmv1Jvb+pfZeCBIAHvF9mg0RUH+S8xX0NbVfer9L4m8HjErhiQsyW2hoIOIkNWIOTKkadNml9XLjxa+fILZdq05sLjJU+ysJzK4p4ESIAESMAfgdLrtR2rSsaGmPelNsTkrDru3X4GHFa1DOrtSqBmSVZXAzoIw6d9cuHglkfA+0U2z4vrXNg++C8x/+S1qu5r9GowQMteTcavW8TrHDrRFx361Ef1yT5nC93I4TFdeRCSZYNiaEcoP9qGadSBwWT1KSTLHkN59hx/kwAJkAAJ+CGA1+vc4EHt2BDy+oQHfsgw5OPqY3l3IKutpH4SuCBQsyTrQuT003ixwBvu6YZsphC5bWZ6kbno56h/iWknxagzNz1iIh0DhTbF8ow4XqMXA0ZavmQCneMHBgZEh2yqS3/nyMEyOTam2k3qWoZ6MI02Pj8/N/uA8pgmARIgARLwRaAmeGDHu9xARchzOz6H8ng/FhtDvdjNgIOXmqAdzQS8d7YrB3e3/8q/Uefvwm2kn6kJI+otSc8IPKA9o9pXSG6pXvv0RMunJuMhvTnHVLbs5QYMf+eUlzxYRtJXm71ZkzI5QTGrR3+rPuH29PT0YI+eu9qrLNlzIwESIAES8EvABg9yLbWBipqggx2fR4zLuf605PM+5nEkbqldlnVFwHtnu4LVw36cOM6Y8F35NON8D24z7GzVMcrP0KQOdfVIj2iL9iahlW9JeWSSU85OyHPK1OaxN2CltopeLCPp2IbXGyyTe8OGZTQtZVvlWh9i9vM4CZAACZCADwI6Bsg+N3BgAxVStuR+I3T/44NGuRXIr7z0+BLxO4nxuqmBBLoS8N7ZrpztYb+d2OQsh76yy/v5Hty8+yj2jfLTthnRkzthtNxCg7/aLW0x9ybCyg39tnaH8ow6pj7JPmfD/LVsc/RInlQdXMmITfRj5Wwd5PJQechF09JG7KoGOVfKTeXJnhsJkAAJkIBvAjZYnmttbMyTwIN8Vyi0xca60nEmJHvVMe9jHkfiVS2DersT8N7ZrhxutV8uoChD0iMunnqhLokiX/nech59bpHjvewoP1Fur/YSuwHoGXQYYXduG0DdOWVK8+fITOVBfZhOlZF+XTLR73G9QdtS6Zp2ifJSfvMcCZAACZDAegL2vqHEIlsWr/+56ZpxpsTG0XnRz9G6auQz4FBDjWVcEvDe2a6gtdpvnzZe6as9L4EGtdXDCgq1RfYnb6P8HCVX68LeCPRqM6PtVvtD+1LdpflDOkuOoT5MWxkaPMQ8Nm3LyO9QcCKUL3UsFLCwumtvAK3slB08RwIkQAIk4IMArnKQe4fSzd5v2DEl9rt2rCm1b2R+9G2knlrZZ9+h11JhuS0JeO9sV1Bb7Lc32CMvnvaCfuXX6PMt3EbAtN42AAAgAElEQVTb1lP+KD9HyUXfR7SZGXajD5gu1V2aH3XVpFGfpvGaINcLDBxqntA+pN8GN1F2KH/omJVhdceWwoZk2WNWtj3P3yRAAiRAAv4I9PoX9/LRYvsfjuwYI79rxi5/1P60CP3zaCMDDh5rhTZVEfDe2a6cqrVfJg92KfSVrtbztba26g2V92RLyL5ex0b5OUqu9bu3nt7yrL2p36W6U/lLJv8iJ+dVJtSnafEnR5fcgGkZ2Yc2PF97w4YyUukcf62NKK/WPiuTv0mABEiABMYSsP/ivud3n8Zavl46jnvrrXltQfhu4nU+HiEB9wS8d7YrgLX226d5M26wa229YlBz3pMtNfbnlhnhpzxFHiEXfQpNcvF8bXq03Sm7SnWn8ueuNEAZV6+lYF5NhwKTes5eM/S47O3Wq82gDkn/8ssvD20Rz4u/JTeeWNbaz98kQAIkQAJ+CeBrFVdjnV8v5lvmfdx7fTcxnxE1kkAXAt4725WTNfbbm387cbjSWXu+xtZaXVflPNlyZWvL+RF+YrDq48ePLeZFy4Ym1NHMBSdG8MhVX6ob89uJs33dBPOm0lYO2p4qh+di1wvMg3Il3avNoA5J6xbjUXLjibJVLvckQAIkQAL+CdgxwL/FPiz0Pu69jPI+eNEKEqgmgFFRuWDtttVcLHrd/JeyqrG1VEdufk+25Npck2+EnyhTljKO2OzNQ2ySW6obbS8t25q/VDdem0omzmKn5ae6RU4s6ID6ND/ur+oA81pWeK6lzaCcmD3Wd2tL6Les5EDZoTw8RgIkQAIk4JcAr+HldeOdGQMO5XXKEk4J9PrYzCr3Si8W9sa65ea/1OdSW0vll+T3ZEuJ3aV5R/g5QmapX7X5V9peqttOnGu+SyCcUK+kY8ELqw/LxSb3WA+YH49bG+y53N/22pUql7IlVA6DsFKWGwmQAAmQwF4ESq/7e3k3xlrvzDgaj6l3Sl1AwH5sZoEJTSpLLxYrb6xLbW0Cc1HYky0XpjadHuHnCJlNThYUXml7je7QqoPSwAPq1XQBsuysKlv2dkuds3ljv0uuXSX6bCAjJ7gSs5HHSYAESIAE1hDA8VIC6NyuCZSMldfS+ud4fTfRXwclksA0At47XApEqe2Yv/bGWm7Q7Tv2OZMg1J3yyZ6Tb068e/fuj2Xi9lzt77sMTLXMU1xHyEzp63lupe01ulOrDlBeabonU5WFNugx3afOaZ6rPcqQdGrDvKl8cq4kkHEli+dJgARIgATWENh9xfIKaiVj5RL7ViilThIYRcB7h0v5XWK7fZKXkovnQgEG1Kvp2FJtlaX5ZB/bUrqu5Mdkho7fZWDKYR7ikzo2QmZKX89zK21v0d078NCTqcpK+Zc6p+Wv9hgkFHmpLVefvSbWBmFTtvAcCZAACZBAXwKpe0W9/vfVeKY0ZXU1pq7yPj3Sr7KKekmgkoD3Dpdyq8T20id5ORd01H91wbJ5a36nWJSc2/1VmlxfkXFuGc0n9S8rS+xHBltkquxV+5W299DdI/AwalKd8i91LrctoO8hH2LXq5T80mtiShbPkQAJkAAJzCFgV9niGNMjLfJlde3pG7Ly6CsDDh5rhTZVE8AnZ3JTu9NWcrHAvKEbduv31QVdJqOyoVwrA38jZyxTkkZ5rWnU2yrLa/kWH3UyhitLZFLXInM1p5W2r9I9S29KT+pcbpvQgIJ9fUuPow5Mx+R//vz5oS3nXBOtrCvdd7lptVz4mwRIgARGEsAANF7vd0p7GB+Q18j6qpXNgEMtOZZzSWDn5fUlF4uSvFJRVxd0nYjmyr2Sh3Lk5t9ObmsmBKkGhwGQ3QJNKb/wHDLF4zlpLKurHDQIoedy5HjKo3bLfva2SvcsvSk9qXO59XAVAEUdmg5dM0JBgo8fP+aa8ZCvxia1zevew03wA2T+IAESIIEMAiX3mF6vvyV2ybVa780y8ASzoL5ghsUH59+pLXaY6s8msPPy+pKLRUneWI3bC7rk6yHX6pNJwdPT0xDZqmvnQJP6cLVvqRsMyISCS6HJ3JU9q8+38Gi1fZXuWXpTelLncrnaaw/KxHSqXcrNmb2uvH///nvtvwfOtQntY/qnP67rPW6Wc9sO85EACdyHAF5jaybkMh48Pz8/3H+iTE9pvTerrV30pVbGyHIMOIykS9lLCHjvdDEoJXZj3pqLsNqAcuSY/a35Wvb2SXpqElGrZ+dAU67PLXVjJ1Ois0Vers2j8tkVM6P0xOSuYjdLb0oPnmuZaNo2iXJD14jQagYsIysbaoMNsXrW4zvdtCKTmWm5WW4Zi5Q19yRAAiSgBEIPS/Scl32v8SE07pX4iNf7knKz8jLgMIs09Uwj4L3TxUCU2G0vwrU3eqhz1CQOdbReUGPs5DjqqeWRkr/6HPpXY4stb3/XyFxVxgaxZtuxit0svSk9eO2RfL0nmleBBbRN0yOvK7PbVi99vW6ClXHOXtpCzlZTxzn675CHr8nktDDmOYWADUyf4tcIP/D6N0J+q0wGHFoJsrw7At47XQxYid32Ilx60x+64RsxiZMvA5f4FWOTcxwnQrk3vjlyveRp5YjlRwWXZrFCX1ZMNlH/LJ9FD7bxkXpT/tlrD+adnR65qmEk35Nk2/aQ45tMmme3lTvra1mJlFOfzEMCIwlg3x2pZ3fZ3jkx4LB7C6P9rwh473SvDP7PgVK77Y2elM+5sZDJpn33GXVLutckDoMYtR9zi/Gyxy0Pe37331hHNb7gZBXTIne3rZVFq7+r9Gsb79U/Yxxy/FNbMO+M9GjfY0x4PE4A6z2e6+XMqraDdjLN72+8tEimPBPA+xW5dnALE8BrWjjH2qP73Wmu5UXtGxDAi9O3b982sPhPE2suFr1u3OQmvkZ/Cq59ij7q/Wq0obcPKHt1utU3/LAmytphAocrcuzT0RX1gvxW6B+tM9e/Xtcf1KfpHdrl6HrYRb7WmexLN+nb8m+ZT3wNrpTFVf7Rr8nkPLC4spHnSaA3Abx3kft7bmECLdfhsMS+R8tHh776KY0EuhOQJ+na8T58+NBd/iiBanPpTVvLTT/e1Nfqj/FYMTHs7UPMtxXHW32Tm1WUoemZvtROLnCljNqt+5n2qy7VLfsTt9P9O7HOVvrU0l60b8tEgkGH/rVYen/ACV3/OqDENgL23qVN2rmlW67DM6icebc0gxx1uCUgqxq8d7wQvFabS28sMNgg9rTqtz6hPVaXzdvrd28fetnVQ06Jb7giAMtdpUc94bL25E4ubLmQ/T3YlspAO0rL7pD/dP961kFtEK2nDTFZs2xraS9yLdDynOzGanLMcRyjtQ5kz40EvBFg+7yuEe+MeGW5rkPm2JCA945nkc78uKLVrb93Y6Z24/4EH9AfTJf4ZleXYNlR6VCwIhUwyAk66NNPtfmvf/3rj8mJHBv9XRDkj2m1R/Ynbqf717POtI16myxL39Nv9Yy2raW92Elvz7qhrHwCLXWYr4U5SaCOANvnNTfvjM68W7quF+Y4nID3jmfx602r2M1JlKWT/3u3es/3rGwFir2JRy4j0zixwQlPTGcq6CDlsZz0C7u0Un6v2NCuFfpH6zzdv578vLLCMUVsHLm1MmgtP9K3u8hmHdylpvf0U+4VtI3K/Q231wSUj+w9bj6t8kiKNm1FwHvHszDRXg+TqF3fpUWOlvHuv3v4hjI0rVx6BCn01ZlYsEHOWz0YpFBbQuX1nNot+1WbBxtG+n66fz3ZeWWFdkl65Ia6asYOLD/STsqOE2AdxNnwzHoC/HDkdR1478NjR6FrPsxBAkMIeO941mkP9mIEOTQJtDZ7/I0+nBYF79FGUIame9djKFiggQjVZYMOtq7s01ksr3bLftXmwYaRvp/uX092XlmhXZIeueF1t2bsQFtH2knZcQKsgzgbnllPwK5uXG+RPwu89+Gxo5C/+qBFNyHgvePZavBgL04CcYJnbfX8++QoeI82gjIk3buec4IN2n5idSUy0E5rI55TWbP3HmwY6fPp/vVkN5KV9IXafxmJdkl65IZjR40utHWknZQdJ8A6iLPhGR8E2EbT9eCdz9hRKM2GZ0lgGAHvHc86vpu91n4vv0+OgvdoIyhD0r231MoEq8vWlS7FtjKwnIePq4o9yBHtOyV9un8962kkK+0LrasGRvR1y7CFQ0tZawd/1xFgHdRxY6l5BHAllV0VOc+KtCYJEssHtEMf0U6XbD/rvQ/3v+NsZ0YJJNBMwHvHsw7uZq+139PvU1n28AtlSLrnZoMBdmVCSBfeQEj6SoZOwMT2VR9XFT+QY8iv3Y+d7l/P+hnJqkU2lpX06A31lepqKVuqi/nDBLAONPgbzsmjJLCGQGxVZKk1o4IC0m/0PwNJf6oJFJf6gvmxD+NxL+nxo5AXT2nHrQh473i2Mnaz19rv6fepLHv4hTIk3XOrCQbYpdhXMtD+VR9XFWZoR0+GXmSd7l9PziNZtcjGsjnBv1YmGDwsffqItrbaUVq+5bWVUl2e82P99Z4ojWI8Sq7nerqzbXZVZC0L/Lfhvdr658+fH+4L5Jo247qLDFZeR9GOWLrvHWdMC4+TwGQC3juexbGbvdZ+T79PZdnDL5TRczC0KxNKggFoE6ZDMvD8yjaHdpyeXsl5B91Y/73trZVt+2Nvu0LyWp4+4mS3NFgRsqXkmAY5e008SnR7ymuDvz1t681Yn1Br/7h73fWsK++ytM5lX7v1bOu2Lap9Pe+vcv1U3S1scnXV5KuvsRptLEMCkwh473iIQS5YO9mLtntMn8qyh189ZNg6l/aLywhLX3VAmzBt9cjvq/OhMiOO4QQJbToxPYJfrUxpa6mPKMqSVnx6hfUx6p1a1FHrV6xcrWyd4Gn5mPyex1uePrYEK1p9UEayv/s2ikVPuXbZusq+e93dxX+tb9m3bD3k2Hsfkfn+/fvvoYclLbbmlu3hU66umnxtNVajkWVIYAIB7x0PEay4OUT9p6V3qvsS9j386iHD2mzbb+lgizZh2uqR31fnQ2VGHLNPSNCuk9IrntKk6su2tVLWI56Eog0p22vOoexY2gZSbABbys3a0MYSnS3BihI9oby1Nodk7X5sFIseclPBRG/Xqd3bgWf7e7Ql8Q/lSNsq2eQaGwpsy8OW0vufEr1XedGnq7wrzs8biVZ4R523JeC942HFoK0cOJFMXRp51knwWaqHXz1kWDoos6b9YnlMWz3y++p8qAyPnUOgx8qS3jRGtkmU3ZLu7XNMHtoYyxM73lI2JjPn+Cq9ObbNzoP9q+erLS2MY5M7kVkz3sxmSn19CfRqoyhH0rlbaFWDl7bY0s9y/W/Jx4BDCz2WdUvAe8dDcDvZinZ7TZ/Ks4dfPWRgvdunqXguJ23Lq32hG8nffvuNAYccqAfnyVlZEnrKpO1K9r23WbJRT2m6t88xeWhX6VNDLBuTP+L4Kr0jfGmVOerVllrGsdcnQn281XeW34NArzZqx5Ic72PtMXS/kiOvd57aftbbjpi8/qNvTBOPk8BEAt47nqKwEy49zn09gV3qvtTDHn71kIF22yXueC4nbcurfaGyeKPx9u3bUBYeuwkBbSeyz9lK8+fI1DyzZId8tTfNaAum1dbR+9qnhmLXCntX6h1dFzXyR73agnWbE4iS+yKPS9ZrmLJMXwI922hJu/TwXyiuSKI/V3lXnM8brVdYRp0k0EDAe8dT1+yES49zX09gl7ov9bCHXzghKNUfyo82lUb5bbANZclX9u2GfeXr16/2NH/fiAC2lRy3S/PnyNQ8s2SX9q+Rdqnvdm8DIPZ86vcKe8WeVXpTLFaeG8EDx53U8vVYoEFsKm3/KxlS91gCvdpoTruMtUmP7bEXl1G1x4DDKLKUu5SA946ncNBOjxcwtXOnPTLdye4rW3v4pROCXm2t1iYZxPE/W4gcHPzlt/0YXq2uK648vx+B0rZQmr+EiFfZI+1K8anVW1suZUvOuVV6c2xbkWcEDx13VHbIr9CYIPn5+kSI1r2PaTuSfct21S5DbXLlf6G48rUXlys9tefbaqtWK8uRwGAC2PFylvANNicqHu2MZuKJIgKnMvXoV41NofcgJQBiB3+UbZfXFjUIZj6OALaNHOdK8+fI1DxeZaNdM8fAWr1YTtnO2K/SO8O3Gh3Io2e7QbloV+wJsuTvFRhHfUzvTyDWlmo8Q1nY3kP3Kd6DX+hLDYvRZRhwGE2Y8pcQwKelqSV8S4wDpd4vEGDqNslTmXr0C22yKxJsg4ndWOJNpbyf+fz8/LDMGXVo2srm73sR0HYg+5ytNH+OTM3jVfaqMbBW70iOWld2L9ekFXqtHZ5+19bflQ8xzviqnObBMeFKLs/fj4C2E9m3bqH2vsP3GkJ+9+QSkt96rL22Wi1geRIYQMA+LR2gootI7xeILk5OFnIqU49+4WCN9uWmYzeWtv9aeVfBjclNjuomE8D2kKO6NH+OTM3jVTb2oVg/Ux967lGvsMndRnKM2WAnu7F8dzpeW39XjGz95gSgr2Ty/D0J2LbUQsG2d1nFgPIlPfP62eIL2t0iZ1TZ/NFglAWUSwKDCHjvfOL2DjYOqp5hYk9l6tEvO1ijjal0ydLEmA4JdnC7JwFsWzkESvPnyNQ8u8pW+0fsa5jUlGm1HXXuMqlo9TmnPAaS5frbY0PWf//73199w0fGBG4kkEMA21JO/qs82N5RtufvNYR8QttD51cfY8BhdQ1Q/zAC3jufOL6DjcMqaJBgHDx63SwNMrVIrOe2EgsKoM2arrmxD8mvkVMEnJndEtC2JPucrTR/jkzNM1I2XstU3w77GiY1ZVpZrNDZavOM8vgviKUN9tiwLSN3SZcEoHvYQhl7E8D208OT0P3FbsEG4dCbSw+2KCNvtMYSTJPAJgS8dz6+PzqmIY24WRpjaZlU7+25zJuy3PJvMu/sfxmt83OXtIXR19kSW0prRm+Edwuu1TCpKVPKE/OPbheoa7e0fEund31oW0a5kt6tbe9Wlyfai22ol3/YPncNgI3g0ouvyGHAoSdNynJFwHvn4/ujY5rLiJulMZaWSfXensu8KcuNfYVLb8vYnZa7NPiEbUf6UM+Nk9YwzZprVU2ZsPa8oyPbRZ4FvnONqA+c1Il8Bht8twGv1o1om159LbHLO5e+o28JGeYlgcEE3He+n3768RSBA2/fxuC97mu8PdGnXA7ouwSUuN2XAE4Uc4JP2HZ6X2fRFtHD7U8CyDyXSU2ZXNmhfKivd7sI6dvtGPLZzXbaezYBts1w/XrnwhEyXG88egAB950PAg4H4Hblgve6r4F1ok+5HO7sey6ju+TDtpATfML8vRmhbE5aX+ji+/ryVDtnQ5Y5+VvycGXKNb2Z9XFtDXOQwAsBts0XFpjyzoUBB6wtpo8i4L7zMeAwrL15r/sax0/0KZfDnX3PZXSXfKVtoTR/CceRskvs8Ja35js6M1lyZcp1i6kJGl1LZQ4SaCcw81rRbu08Cd65MOAwry1Q02QC7jsfAw7DWgTW/a+//jpMz0zB6NNMvR503dl3D/y92FDzZHpk2xkp2wvzGjtqvqMzkyXqiq1Mkbb25s2bH689YhlNy3n5psiJW03Q6EQO9MkfAe1/suf2QsA7F9bWS10xdRgB952PAYdhLQ6fzkj6hM17ex7J+M6+j+S6m+yaJ9Mj285I2bvVjbW3lE1pfquv5HdIV06AActhOve1kRIbV+etCRqttpn670EA+949PM7z0jsXBhzy6pG5NiTgvvMx4DCsVdmvYQ9TNFGw9/Y8EsWdfR/JdTfZ2A5iT6atT1jGnmv9PVJ2q22ry2PQN2dCPpMl6uqRFl9zvieyuk5K9ZfWYal85ieBGgLYZ2vKn1rGOxcGHE5tefTrYSmkRxzeLw4emZXYhHxPeK0C/SnhcELeO/t+Qv318iG3HcSeVveyQ+Xk2qP577QvXZI/kyVOpFFvKB0LbEmAQf5LipR5fn4+smpL6/BICHTKHQHsp+6MW2iQdy4MOCxsHFQ9loD7zscVDkMbAN5USnr3zXt7HsVX3pG+q++jmO4qN9UOYkGGVJlWDiNlt9q2unzpkvyZLO0KONQdCzDEeP7222+xU9sfL63D7R2mA1sQwP66hcGTjPTOhQGHSQ2BauYTcN/5GHAY2ijsTeVQZROEe2/PoxDge/vyRJHbfQlgH8gJMGD+0olkDmWUn5P/bnlK+JTkvRvHlf5ivZywUnAlS+ruQwDbZB+JZ0jxzoUBhzPaGb0IEHDf+RhwCNRa30Pe20CJtyf5Uuv3ie9Jl7C4e17sAznpEUEGrAO0AY8z/SeBEj4lecl3HoHTVgrOI0dNowiErhUSgH737t2x/zUmh2WIS065WXkYcJhFmnqmE8CBMuejVbMN9H5xmM1jhD5kvPvTGfRlBCuvMu/qt9f6WGkXXtOxXWB6dJAB/Ue9eJzpPwmU8CnJS77zCNiVgruPo/PIUdMoAqFrRexf2Mrxu7TZEJdRdVAjlwGHGmosswUB7x888n5x2KKSL4zECYqkd97u2l7u6vfObXWU7XbyI21jZoDB+sW2aYk8/i7hU5L3UQt/jSZw0jg6mhXljycQulbg/T6eD6UlCCHfhjptQ189+saAg8daoU1dCHj/4NGoi4NEc2PRXtTpOd0rKm0nKF0a1iIhWF+LTFii9q5+L4FNpUUE2DbTuEr4YF6mf3r4UK43Hula51kSGEsA+4Nqkvt9+W8xeK4lvWNQAv1VLp72DDh4qg3a0p2A5w6ItpUu+Sr9YBrqunO6ewObKBDrbaLapar4HyqW4qfyCwJ37JMXSB5Ol/DBp+hYjml/wYeHSuYPEphMAK8JKdX2gROWq0l7D0KgTykuq84x4LCKPPVOIeC5A/IGa/6N1JRGN0iJ57Y8yOXv/A8Vo8hSbg8Cd+yTJdxK+PSeHKBupvuNtStfYSppe8x7LgHsz6Ve9l4JIbZ4CUS0cCnlWJOfAYcaaiyzDQHPHXDkDZb8+8Bdv+g/isvuN0oYoPr27ds2fbDFUOy/u7bnFv9Z1jcBbJ9Mpye1vmuS1pEACexCAK+1I2weFZQoXclc6ttoLqX22PwMOFgi/H0UAe8dsHVyvfsk+qjGNtgZCSJpe/7w4cNgbT7Eq7+y50YC3ghgEBDbKtOvgw/e6o72kAAJ7EkAr6+zPBgRhBA/en2vTDis4FLCn3dxJbSYdzsC3jvgdkBp8DICsqrhbu35bv4ua1xUXEWgNWCM7fvkNAPjVc2LhUiABAIE8FoZOD310KhAhPpYEpDQMrL3uPm0yiMp2rQlAe8dcEuoNHoZgTu1Z/kw6p38XdaoqJgESIAESIAENiGw233BiMB0KBDhnQsDDpt0MJpZR8B7B6zziqXuSuBO7Rk/GCl+cyMBEiABEiABErg3gVPug0YEIpRNKCCxutXwLm51DVD/UALa+ThhGYqZwicRwHfGZbA6ecO+yyXZJ9c0fSMBEiABEiCBPAJ4b5BXYs9cowISq4IRDDjs2Q5pdSaBu1yYMnEw2+YEPn369OM1Awk+nLyx755cu/SNBEiABEiABMoJ3P3eoEcgQu4fR//XDFuzDDhYIvx9FIG7X5iOqkw688e/Or1Lm76Ln2zWJEACJEACJEACeQR4bxDmhFxy0rMfWjHgEK43Hj2EAHa6Q1yiGzcncJfXKth3b97Q6T4JkAAJkAAJGAK8NzBA/vMzhwuujpj9qioDDuF649FDCOR0wENcpRs3IXCX1yrYd2/SoOkmCZAACZAACWQS4L1BGJR3Lgw4hOuNRw8h4L0DHoKZbkwkIP/3+Q7t+g4+Tmw2VEUCJEACJEAC2xPgvUG4Cr1zYcAhXG88eggB7x3wEMx0YzKBO7TrO/g4udlQHQmQAAmQAAlsTYD3BuHq886FAYdwvfHoIQS8d8BDMNONyQTu0K7v4OPkZkN1JEACJEACJLA1Ad4bhKvPOxcGHML1xqOHEPDeAQ/BTDcmEzi9Xf/zn/+8xWsjk5sN1ZEACZAACZDA1gROv/+prRzvXBhwqK1ZltuCgPcOuAVEGumOwOnt+i9/+QsDDu5aHQ0iARIgARIggbUETr//qaXrnQsDDrU1y3JbEPDeAbeASCPdETi9XaN/s/91k7vKpkEkQAIkQAIkQAJ/EMD7g52QyMrNd+/eff/111+HmO2dCwMOQ6qdQr0Q8N4BvXCiHXsR+Pnnn3+sAJD/q3zaxn7rr0blZunNmzc/2h3WEaYlz6gbKn9UaBEJkAAJkMBMAjjezNTbqktXbsr924jNOxcGHEbUOmW6IeC9A7oBRUO2IvDp06cfE79Rg9dKIOy3K+mHdecEG7DebJqBiDBXHiUBEiABEsgngGNLfqm1OWd8l8o7FwYc1rZBah9MwHsHHOw+xR9K4Pfff/8RcJA2ftrGfuujRnNXNWB9XaUZePBRt7SCBEiABHYkgGPMLvbr6ga1vbfdv/32m/t7wvPuVHvXIuVtTUA7t+y5kcBJBE5u2yf7tkMbTAUaUitq5PUerLtYWmTwtYsdWgJtJAESIAFfBHBc6WmZjHujvrGANo/4LhWuen379m1PLN1kcRbWDSUFeSPw5cuXh5tfb/bRHhJoIYADWIscj2VP9s0jb7UpFWjQOqm5WQoFIlKBC7XHy15vRHNfK+EqDi81RztIgAROI6Bjkex7broKYcTYNMpm9V9tFz1fv37Vw672fWvLlWs05u4EsAN+/Pjx7jjo/2EERg9gK3Gd7NtKrindsuLg6enpIUir9VATZAjpsoGHUB6Px3AsUSa99hKckOA4NxIgARIggWsCeO29zp2fA+VercDD4HxOgBll51uUn3O0/HxL4jkZcIiz4ZnNCWAHlHfeuZHASQSwfZ/kl/hysm/e6kpurGJP7nsFGtDnHesWbZ6VZiACWw3TJEACJPAnAbwG92QiKxtUdmyVAwYaNK/sJX8sSDFjtTXa0pNJT1kMOPSkSVmuCP7UgiEAACAASURBVOzQAV0BozFbETi5fZ/sm5dGFrtxEvYjAg3q9451W2KzXcWBZWekc562aV1wTwIkQAK7EcDraE/b7bU7JDu12i0WpMAyo1Zbj2ISYlB7jAGHWnIs557ADh3QPUQa6JbAye37ZN9WN6hUoEFuhkavBtuxbkfZLKyfn59/PFVDPb3SDECs7nHUTwIk0JMAXht7yhVZMdmxcfOXX355KGNXOUg5lDlqfEUdvZn0kseAQy+SlOOOwA4d0B00GrQNgZPb98m+rWpgsRsmYT0j0KB+71i3s20eEYhg4EFbIPckQAI7Exh5PY7JxlUKmkcZpl7FsOW0TO+92iR7r5tfy7wSo13bENihA24Dk4a6I3By+z7ZtxUNSZ66jP4gZK5fO9btLjbbJcFot6RjS35z685bPgmijfo3dt58pT0kQAJ/EsDrWm8mIdl2lYLkwdcO7XUXVzmgPCwzw+7eOlrlMeDQSpDl3RLAju7WSBpGApUETm7fJ/tWWd1VxVKrGkbe/KSM3bFud7RZ6sDeCIsfJ2369PC0QMpJdURfSKA3gZHXYytbxlAbrA/5Y1c5aNDByguV7XFslp4WW88afVpIsOxxBHbogMdBp0PTCJzcvk/2bVYDCd0oCddVgQb1e8e63dFm5S373e1HXzRtnzrqce5JgATOJjDyemZla1BTj8fGTxvclQDEjP9OITX922+/bXGNZ8Dh7H55a+/0AiF7biRwGoGT2/fJvs1oh6Fgw8zvNKR83K1uZ900ppi1ntuNeY6/diKQU4Z5SIAE9icw8nqGsm1QMxZsUKI26IArI0b9dwrR/enTpx8Bh7dv36o57vacibmrEhrUiwBeOHrJpBwS8ELg5PZ9sm+j208o2HB1ozTaJpS/W93ixHbkTSMy6p3ejfmV/6UTgSt5PE8CJLAPgZHXM5SN1345nrPhqxUoa9R/pxCb0M6vX7/mmLkkTx7BJaZRKQm0EcDO3iaJpUnAH4GT2/fJvo1sSTnBBskj/7EAGWN69H8zQF0jWfSSjfaOvGnsZW9IDvoQOu/lWKptSruU1Say4Q22+MaNBEjgPgRGXs9QNqZzg/Z2lYPIyC1bW4NoZ62MGeV4pZ5BmTqWENilEy6BQ6XbEzi5fZ/s26iGlxNsEN12soasNT3yI3yqQ/Y7bLvZG2K6iw+pQJj6YPOMvpkP8eQxEiCBdQT0WiD73hvKxnSJHgw6zLg+1dpZ4lOPvP1rq4dVlEECHQjs0gk7uEoRNyRwcvs+2bcRTTU32CD5kG0qPcJOkYk6a3WknoSj/FQ6dyUHyqi1d3W5XXzAG3W0ebd0btta3S6onwR2JIDXg972o2xNzwgatPihdsre8+bbOs/kaJt7Art0QvcgaaBLAie375N9692YcoMNoteubkBbbDACz/VK9/oAo33Kje2lJJ2zkgPl9eIgcoT3u3fvvuu/T+sp28oa5YPVM+q3vMry/Pz8EKxCnzymc9rWKF6USwInE8D+3tvP0DcYeuvoLW8kj562MuDQkyZluSKwSyd0BY3GbEFgxuRwJQj23Xz6NogQexpj24zNZ+XkW5CfE3W0fICx55PwK+tHtUVlMWNiOsqHK3a9z+8WdOjtP+WRAAn0WSUX42jHFjtOxsqtPL7L9Z0Bh5WthLqHEtilEw6FQOFHEtDJirbx05xUv2TPLU7gKoiAJVNtRp6yI/NRN1moo9cHGO0NIvocSltmoTx4DG3G4y3pXis9cm0Y4UOu7p75Um24p55aWWhfS0CtVj/LkcAdCIy+numYMmoc7F1Ho3n0spd3c71IUo47Art0QnfgaJB7Ati2dxkUS6CifyXl7pYXJzjCLLUhU8xrJ794LiWv9FzpRL9EPvp2Va6EmcgqkX2lW8+jDTMmpiN8UF9m7tEPj9c9tK9XQG0mX+oigR0IYD/bwd7RNu7CI32HMpoS5ZPAQAK7dMKBCCj6UAInt+2RE9OTmoMNFKQmYJap5JVjoW8hpOS08MNJtrTfnltJf8C8Ob5i/l42o8wZE1PU18uHFXK8++HdvhV1Rp0k0JsA+9kj0V149B31HxnwFwksJbBLJ1wKicq3JHBy2x45Md2ysiNGI6erp+SYV9qObPYYtqkRX9lH+TkT/YjbwcMoO5gBDpbklWKl+UFVNJkjUwJCvT4qmaMvaqyTEzZo5sSsBzNO4PzgEH+QgEMC7GePlbILDwYcHuuNvw4isEsnPAg5XZlE4OS2jb71nphOqp7hauzk6+opOTKVtGyhr3FjPjnf8z8ooOzegEpkl+QVO0vz5/iWI1MDQj3qIUdfjt0r8ygP9WWlLTHdapvsuZEACYwhwH72yHUXHrwqPtYbfx1EYJdOeBByujKJwMlt+2TfejWP0skXMpW0bPphLHsOf/f6Dwr29Y9eHFQO2qzHQnsbqAnlscdyZdtyqd85MjFPaz2grJRdns+hD14DkWjjCJY9V72MsI8ySWAGgdH9bIYPPXXswoMBh561TlmuCOzSCV1BozFbEDi5bZ/sW4/GZSfNOZMvZCrp1GYDEam8OefE3qenpx8rBa5e/8iRafOgf/Yc/i4N1EjZXNmo5yp9JdPWseRvWW1ype/K3tXnRwesevk3mrO239YAVC9/KYcEVhAY3c9W+NSicxce6TuPFgIsSwKLCezSCRdjovoNCWDbnpWW9/rlxn/0hv6M1rWjfJ10KKccHzSv7q/KaD7Zt27W3qvXP2r05dqL+XICNWILlqmxLVTmSqZlJvlbJplX+kI2ejqGPEYErHr5OprzaPkxDlxZESPD4ysIrOoHK3zN0bkLj/a7iRwazEMCCwjs0gkXoKHKzQnI5APbt5d0j6AE+rJ5NQ0x//+3d8fYbRtbA4BTukyZMkvwEl75SpcqVarUDlK6TKlSS3DpMktwmfKVXoJL/WecQP8VRIIAOAPMBT+e40OYAGbufDOAgEsAjD5zTppPfVt+LrCy7PiXK84tO+fzcd1z4p1T7niZaDKeF/8/d7lhnVbfrF+KI86P00NcS99rlLG0zprLx/hbJKxqxRrjrFVmLKd1+bGuOD0kfK5JesXyTBO4RmCv7eCamFuum8VDwqHlKFD2rgJZNsJdkVSeUmB82Xsc6xmn468ixPhTdk7DoMcn8HOqGk4WLrmWS/bjrQ9l+Wu+TS6xjsubE++aZS61bShz7nLD8tHuGouhvOH9Uhxxfpwe1l/6XqOMpXXWWr5F0qeMzVq/ABLb2dq5dfmxLXF6r3pjDKYJDALG4yDxz3sWDwmHt/3mfwcSyLIRHohcUw4qUL5VvL+/3/yqioNyrm5WPAEu+7dzr3JCNb5SIe4P50yXE+xrvk0ex9rq6oZiENtzzmTJckMZsdxrLIbyyvulpNF4fowhlrNkukYZS+qruWwcR7WSPkOZtb+xb+0cy7/mmR5L+yfWu3RdyxOoLWA8vhXN4nH+iOVte/yPQDqBLBthOlgBEzgh0CIpcaKam/4o7tOmTuCvTTZMlX2pA04lO64p71J9ZX50mVp+7nJDGUuXH9abeh9Odoeyl/TVVLlT84a6ynu2V4y9VtInllnTo1W5Q4zxVrqlyZJhu4xXkw3lTr2PE2BTy5pHYAuB1tvZFm2oWUcWj3x/fWr2krIOLZBlIzx0J2gcgQsC524PaX2SeiGsLmfP3aedM43rn5q+9qqGgjY+oS71tH7Ftpyra82J05xyz9V37vNY5tLpc2VOfb6m3VPlbTmvxe0UJf7oXrM9rcodYhxv18Pnl97LGIi3N5VkxdwrJMbb86W6zCfQWqD1dtY6/trlZ/FofyRQW1Z5BGYKZNkIZzbHYgQI3LDA2pOv+K1orUvST3VDOak59W39FomjOfv6NSdOc8o9ZTH1WSxzyfRaxzXtnop/y3kx9ppjN7rXbE+rcmOMS+sYJxuG9ecmHYbly/vaMRjjN03gWoE4Jq8t6wjrZ/GQcDjCaNOGkwJZNsKTwfuQAAECQWDtydfj4+PPb3Q/ffp01TMZQijvJs+d1LxbsNEHc/b1cZm5J05xnRqhF6dYZpwu5Y/n16gz1jG33TXqvbaMsUWt2ynG5V4bZ1w/WsfPa04vqaO0NV7ZENct05duy2hpVdNEWbclEMfxbbX8dGuzeEg4nO4/nx5AIMtGeABqTSBAoLFA3J/VOvmqEfK5k5otT26jzbk2zVlmvO6adcZlxP/HpFEse7Aaz4/rrp2O9awtY4/1WliUdrQqt5S9hfXcOk5tl2WcLbkto6XVHmNKnccQmLsNHKO1l1uRxUPC4XJfWiKpQJaNMCmvsAkQ2FCgx/3ZuZOaDVl+VjXHZs4y47jXrDMuI/4/ljdMD8mGstzwWXmPn8cylk7HMpeuu+fyMe5aFuNv7GuVOzjFmIfPar/HOs49h+HSdhlvs5p6iGSsq7ZVbRfl3Y5AHJe30+rzLc3iIeFwvg/NSS6QZSNMzix8AgQ2EOhtf3bppGYDktcq5tjMWea1wH8n1qwzLiP+P5ZXpuNJ3PhkOK53zXSs85pytl63Rdytv7FvEfPYPSYLTj2HYc52OdxmNcR76taKVuNx3B7/J7BUYBi35d3rbaK6Zw+91XPviO0qATulq/isTIBARwI97c/KN6vje8PjyfPWbHNs5iwzjnvNOuMyhv+PT+BK2fHV6mS4ZhtivC2nx1a16ooWLcZrLL9WzONyxrdExGTB3O3y1E8Yj6+WaDUex+3xfwJLBeJ2tsV0uQqoPLS511c06DXGEtfbv3g9Ryo2AgsFsmyEC5tlcQIEblAg7s/GJwdbcvzxxx9vLv0vcbU4eVvSpmhzbr05y4zXXbPOuIzh/+MTuLFZrGs8byhjzXssd836e6wztqoRQ6skRoxtK+tx0iHWG6cvjaNzV0uMrS6VEw1ME2gtEMdtHO9Hmp661WnsG9s9ntfT/yUceuoNsVQVyLIRVm20wggQOKRAPMiK32pu1dhyErLXz15eamPc18+ZvlTeMD+WNXy29j2WVabHrzi/ZkIpljuus9f/x5hrnOyWsTu+IqdF22PcLcqPZcb9Qax3mJ7jNk5cDPuVFgmfGLtpAtcIjMftMOa9//Luy4DBZEkC45q+mVr3/V+9qaXNI5BIYNjQyrsXAQIEMguMD7K2PIA4dcL23//+t9nPbC7tp0snX/FvwZK/B3G9pTGNl49lnToZjG0YTvzGZaz5f6x3zfpbr1MuXa4d8/gE+pR/jXbWjnsqpvH+YKj77u5u0XY5LmecVGxlNdU28wj0InDq9qNhW8v2XvPvypr+cSa2Rs06KQTizqC3gMs3WOM/7DHeHqe3PMHprb/EQ6AHgXhSWvYR5f81vw0/1cZTyYalJzWnyq352fikaWr/ueQEKpZzbbyx706VFduwJMZTZcXParYhlttqOiYHyjir8YoGNW3HscV6xvN6/v/4IZJZ29GzsdgIzBWIfwvitnjtdMt935y2STjMUbJMSoG4cW7VgHOXHcdYMk9vcYKzVV+ph0A2gXMHIq2SgaeSDXsftGzZZ3FffW29Q99t7VezDdcazFk/xlu+Xbz2VcZwLPPa8qbW36qeqRjWzJv6FndNedYhQGA7gSz7HQmH7caEmjYWuHYjzHgVQmxzq+mSdPAiQGA/geHkNW7jNZOB5xKnW58s7yf8T83Rd+9Y1tafqQ0tkgPxioli0fKVyfqUw3i/cmvb+ykTnxHoXSDLfqft3rf3XhLfoQUubYTnDqrjei2ne7sseWowjA9EppY1jwCB9gLjbTLuq6654qHsF8cP2Ctl3+LJRzRt36NtasjUhtrJgXECI1qsmb60XcUy2/SmUgkQIPBWIMt+R8Lhbb/534EETm2EWyUZjnhwfsrzQMNFUwikFKiVeJjaNx5xf3aps8cnq5eW73V+pv12jLXGmBsnMGL5a6enrvCLZfY6HsRFgMCxBLLsdyQcjjXutCYInNoIlx6AZLoKITS9yeQpzyYVKZQAgUUCU0mHuN0una5x0reoIR0tPP5b0VFoi0KJfb5oxR0Wrh1rSQ7EMmtMT20Tsfwd+FRJgMANCmTZ70g43ODgvJUmn9oITx2ATB1A3IrVnHae8pyznmUIENhOoFby4db3i3F/l9Ui21Ua0bzGFhO3hS36sHb8NQyUQYDAsQWy7HckHI49Dm+6dac2wuEAZIuDj6Phn/I8Whu1h8BRBIZ9Xdxu50zbN/4zAqJV1jGR7SqN7ObZ4886zsVN4JYFsux3JBxueZQevO1ZNsIs3cAzS0+JkwCBawWOsL+LbciQSIrxxunysManp6dru7T5+jHm5pWpgACBmxf4/v37m9vGegaRcOi5d8R2lYA//lfxvVuZ5zsSHxAgcFCBI+zvsrXh1C2PsQ1LpvdIUsT4DrpZaBYBAh0JPD4+viYcPn782FFk70ORcHhv4pODCPjjX7cjo+fz83PdwpVGgACBjgTi/q6jsBaFkq0Na28Diu2cM90qGRHrXtRRFiZAgMAKgXjb3JcvX1aUsN0qEg7bWatpYwF//OuCx2+fyrQXAQIEjioQ/34snW51QrvUOsa9dN1elv/x48fL/f3967d4sU0tp0sfLk2sx3h68RMHAQLHFci0z5FwOO44vPmWZdoQM3TW+NunDDGLkQABAmsEYoI1/i25dnrLZESMdY1B1nX2SlLcqnfWcSJuAtkFMu1zJByyjzbxnxXItCGebURnM5h21iHCIUCgicA4wRr3fa2nayUlYpxNkBIWulUyIiGNkAkQSCaQaR8v4ZBscAl3vkCmDXF+q/Zdkum+/monQKBvga1OaOO+eM5032p9RXdtsinDL4L0JS4aAgTWCMR9/5r1t1xHwmFLbXVtJvD169c393xuVvHBK8q0czt4V2geAQLJBPZMRiSjEi4BAgQIXBDIdEwu4XChM83OKRCf3Fo2SK86Apl2bnVarBQCBAhsJ9AiKeEb9+36T00ECBDYSiDTMbkzsa1GhXo2FYgboYOtevTRtV6pSiJAgAABAgQIECBAYK5ApmNyCYe5vWq5VAKZNsJMsFwz9ZZYCRAgQIAAAQIEjiiQ6ZhcwuGII1CbPL+h0RjItHNrRKBYAgQIECBAgAABArsKZDoml3DYdaiovJVApo2wlUGLcrm2UFUmAQIECBAgQIAAgfkCmY7JJRzm96slEwlk2ggTsbpyJFNniZUAAQIECBAgQOCQApnOdSQcDjkEb7tRT09PTowbDYEPHz682pbfKvciQIAAAQIECBAgQGBbAQmHbb3VRuCNQPxJzLu7uzfz/Oc6gcfHx9eEQ0k+eBEgQIAAAQIECBAgsK2AhMO23moj8EYgboDlN8296gkUz+hbr2QlESBAgAABAgQIECAwRyDT8bhbKub0qGVSCWTaAFPB/hss34y9JmYCBAgQIECAAIGjCGQ6HpdwOMqo045XgUwb4GvQiSb4JuosoRIgQIAAAQIECBxOINPxuITD4YafBmXaADP2Ft+MvSZmAgQIECBAgACBowhkOh6XcDjKqNOOV4FMG+Br0Ikm+CbqLKESIECAAAECBAgcTiDT8biEw+GGnwZl2gAz9hbfjL0mZgIECBAgQIAAgaMIZDoel3A4yqjTjleBTBvga9CJJvgm6iyhEiBAgAABAgQIHE4g0/G4hMPhht9tN+jp6cnPNjYeApl2cI0pFE+AAAECBAgQIEBgc4FMx+MSDpsPDxW2FPjtt99eEw53d3ctq7rZsjPt4G62kzScAAECBAgQIEDgsAKZjsclHA47DG+zYXHj+/Hjx20iNG51NG5cleIJECBAgAABAgQIEBgJZDoel3AYdZ7/5hbItPFllf7w4cPrVSSfP3/O2gxxEyBAgAABAgQIEEgpkOmcR8Ih5RAT9DmBTBvfuTb0/vnj4+NrwqEkH7wIECBAgAABAgQIENhOINM5j4TDduNCTY0Fvn79+noiXDZCrzYC5VaVTDu5NgpKJUCAAAECBAgQILCPQKZjcWdl+4wRtTYQiA+MlHBoAByKzLSTC2GbJECAAAECBAgQIJBeINOxuIRD+uGmAYNA3PAeHh6Gj703EIjWDYpXJAECBAgQIECAAAECZwQyHYtLOJzpRB/nE8i04eXTfRsx67ce/keAAAECBAgQIEBgK4FMx+ISDluNCvU0F8i04TXHaFwB68bAiidAgAABAgQIECBwRiDTsbiEw5lO9HE+gUwbXj7dtxH7acy3Hv5HgAABAgQIECBAYCuBTOc9Eg5bjQr1NBX4/v27X05oKvy2cD+N+dbD/wgQIECAAAECBAhsJSDhsJW0egj8KxBPgD9+/MilsYCfxmwMrHgCBAgQIECAAAECZwQkHM7A+JhAC4GvX7++/Prrr69XOHz58qVFNcocCWTa0Y1C918CBAgQIECAAAECKQWenp5ez3vK8Xjvr/4j7F1QfLsL/Pbbb6k2ut3BKgUg4VAJUjEECBAgQIAAAQIEZgrEc5+7u7uZa+23mITDfvZqriQQT3wfHh4qlaqYSwLR/dKy5hMgQIAAAQIECBAgcL1APAYvtzn3/pJw6L2HxHdRIG50Fxe2QDUB7tUoFUSAAAECBAgQIEBglkC2Y3AJh1ndaqFeBcrzG7JtdL1aLo0ruj8/Py9d3fIECBAgQIAAAQIECCwUiMfgC1fdZXEJh13YVVpLIN7DVDY+r+0EPnz48JrsKdNeBAgQIECAAIE9BbKdiO1ppe68AtnGuTO0vGPt5iMfX93g+Q3bDonPnz+/Jhwke7a1VxsBAgQIECDwXiDbidj7FviEwGWBbONcwuFyn1qiUwFXN+zfMdl2ePuLiYAAAQIECBBoJeC4pJWscnsSyDbOJRx6Gj1iWSQQNzZXNyyiq7Zw7INqhSqIAAECBAgQILBCwHHJCjSrpBPINs4lHNINMQEPAtk2tiHuI73rgyP1prYQIECAAIHcAo5Lcvef6OcJZBvnEg7z+tVSHQpk29g6JLw6JH1wNaECCBAgQIAAgUoCjksqQSqma4Fs41zCoevhJLhzAk9PTx5YeA5nw8+z7fA2pFEVAQIECBAgsLGA45KNwVW3i0C2cS7hsMswUem1AvGBkXd3d9cWZ/2VAtl2eCubaTUCBAgQIEAggYDjkgSdJMSrBbKNcwmHq7tcAXsIxA3tx48fe4SgzpcXV5kYBQQIECBAgEA3AvH4sJugBEKgskC2cS7hUHkAKK69wNevX53otmeeVUO2Hd6sRlmIAAECBAgQSCnguCRltwl6oUC2cS7hsLCDLb6/QLydomxwXvsJZNvh7SelZgIECBAgQKC1gOOS1sLK70Eg2zh3ttbDqBHDIoG4kT08PCxa18J1BT58+PB6tcnnz5/rFq40AgQIECBAgMACgXiMuGA1ixJIJZBtnEs4pBpegnU7RV9j4PHx8TXhUJIPXgQIECBAgACBvQSynYjt5aTe3ALZxrmEQ+7xdnPRu52iry4vD+zMttPrS1A0BAgQIECAQC0BxyS1JJXTs0C2cS7h0PNoEts7gbiBuZ3iHc8uH8Q+2SUAlRIgQIAAAQIE/HqWMXAjAtmOvSUcbmRgHqGZbqfosxez7fT6VBQVAQIECBAgcK2AY5JrBa2fQSDbOJdwyDCqxPhTwO0UfQ6EbDu9PhVFRYAAAQIECFwr4JjkWkHrZxDINs4lHDKMKjG+jK9ucDtFP4Mi206vHzmRECBAgAABAjUFHJPU1FRWrwLZxrmEQ68jSVxvBH7//fc3DyeMG1qZLvOfn5/frOM/2wjEvtimRrUQIECAAAECBN4LOCZ5b+KT4wlkG+cSDscbg4ds0efPnycTDnHDOzctKdFmaETvNjUolQABAgQIECBwWaD8RPdwXFKOHb0IHFFgGOPlPcMrR5QZJMXYXKD8BOP9/f3rH5K4sV0zXRIRd3d3L09PTy9///1383YcrYJof7S2aQ8BAgQIECCQR+Dx8fH1OLEkH7wIHFEg27G3hMMRR+GNtanG1Q9xwx1Pl4RESUZ4nRaIXqeX8CkBAgQIECBAoL1A+XLKcUl7ZzXsK5BtjEs47Dte1L6RQIukRElE/Oc//3n59OnTyx9//PFS6vjrr79+/tuoWV1Uk22n1wWaIAgQIECAAIEmAo5LmrAqtCOBbGNcwqGjwSOUfQS+ffv28ueff/5MHPz6669vMuNxg14z/fHjx58PtByve6TnScS27dODaiVAgAABAgQI/CPguMRIOLpAtjEu4XD0Eal9Vwm0em5E3FHMne711o74gKarsK1MgAABAgQIELhSIB5XXVmU1Ql0KZBtjEs4dDmMBJVB4H//+9/P2ye+fPny85aKcltFucWi/Kt9pUTcsVwz3SJpMdyu8vDwkKHbxEiAAAECBAgcWCAeJx24mZp2wwLZxriEww0PVk3fR2A4QY87i6NPe97FPmNNrQQIECBA4NYE4jHVrbVde29DINsYl3C4jXGplckFerq1I+7kak6X512Uq0NKcqJmuTXKKjGVKzjKQ0G9CBAgQIAAgX4F4q2e5UseLwJHE4jHthnaJuGQoZfESKCCwC0kLeIOuPfpFre3VBgmiiBAgAABAqkFHh8fX7+4KMkHLwJHE4jHuBnaJuGQoZfESCC5QMbnXcSdeQ/TJUFRDqK+f/+efDQInwABAgQItBMoX7DEv9vtalIygX0Eso1vCYd9xolaCRBIJFB+OrWc7Pd4u8fwR8dtH4kGlFAJECBAoKnA8LexvHsROJpAtvFtKzzaCNQeAgS6F9jj9ha3cHQ/LARIgAABApUEsp2QVWq2Ym5EINv4lnC4kYGpmQQI5BYoP79aHqwZ/8i0mJaYyD1ORE+AAAECL2/+VvIgcDSBePyXoW0SDhl6SYwECBC4ILDFbR9u27jQCWYTIECAQBcC2U7IukATRBqBbONbwiHN0BIoAQIE1gnscQtH+WPoaol1/WUtAgQIELhOINsJ2XWttfatCWQb3xIOtzZCtZcAAQJnBPZITJSkhF/fONMhPiZAgACBVQLZTshWY3u3JwAAD2hJREFUNdJKNyuQbXxLONzsUNVwAgQILBPY4raN+Ee0TLuNY1kfWZoAAQIEPMPBGDi2QDxWytBSCYcMvSRGAgQIJBPY8moJSYlkg0O4BAgQaCyQ7YSsMYfiDyaQbXxLOBxsAGoOAQIEMgls9esbwx9nt3BkGh1iJUCAwDqBYZ9f3r0IHE0g2/i2FR5tBGoPAQIEDiSw1W0crpI40KDRFAIEbl4g2wnZzXcYgEUC2ca3hMOi7rUwAQIECPQmsFVSYvgDX5ITT09PvTGIhwABAgT+Ffjw4cPLsM/+/PkzFwKHEhjGdnnP8MoRZQZJMRIgQIBA9wJb3sLh9o3uh4MACRA4qED59aPhpKwkH7wIHElgGNsSDkfqVW0hQIAAgUMLbHmVhETEoYeSxhEg0IFAeXBxtpOyDtiEkEQg29h2hUOSgSVMAgQIENhfoOWvb0hE7N+/IiBA4LLA169ff/5kcdlnPT8/X15hpyWynZTtxKTahALZxraEQ8JBJmQCBAgQ6F+g5e0bkhP9978ICRxVoOx/hhOenm9XGGIs714EjiSQbWzbAo80+rSFAAECBLoXaJmIiAchw7TkRPdDQoAEUgmUhzAO+5fy3usrxtjzlRi9+omrX4E4tvuN8v8j63cv8f8xmiJAgAABAocX2DoREQ9YhmnJicMPMw0kUEVg2GeU915f8Zcqer4So1c/cfUrkGH7i3r97iVilKYJECBAgACBV4EekhPxgKckKh4eHl7++uuv1xhNECBwXIG4/fd69UCWKzGOO0q0rJVA3P5a1VGzXAmHmprKIkCAAAECnQn0lpyIB0px2tUVnQ0c4RCYEMhy9UDcx0w0xywCqQSyjWsJh1TDS7AECBAgQKCdQJbkRDzYOjUtedFujCiZQBEYXz3Q61UOcf+g5wgcRSDbuJZwOMrI0w4CBAgQILCTwLdv314eHx9//lRePBA6wrTkxU6DSrXdC2S4yiHug7oHFSCBmQLZxrWEw8yOtRgBAgQIECDQTuAoV1fEA0HJinbjRcn7C4yvctg/ovcRxO3x/VyfEMgpkG1cSzjkHGeiJkCAAAECBM4IHC15URIXT09PZ1rrYwL7CfR+4tN7fPv1nJozC2Qb1xIOmUeb2AkQIECAAIGmAkdLXsQD1TnTrtJoOrzSFx7HUI/PcYjxpcfWAAL/CmQb1xIOhi4BAgQIECBAoIHArScr4kHxuemS0PCTqg0G30ZF9v4chzjuNiJRDYHmAtnGtYRD8yGhAgIECBAgQIDAOoEfP3683N/fv8QDTNO/vPGQtFg3tmqs1ftzHOK2UqO9yiDQg0C2cS3h0MOoEQMBAgQIECBAoEOBI1+l4XaROgMunvz0dltFjK1Oa5VCYH+BbONawmH/MSMCAgQIECBAgMBNChzxJ1VLIuOWHvLZ820V2U7MbnInoNGLBbKNawmHxV1sBQIECBAgQIAAgV4Ejpi0iCcUNaZbJkF6vq0i2vUyXsVB4FqBbONawuHaHrc+AQIECBAgQIBAOoEj3y4ST0haT5dkRqyjp4HQa1w9GYkln0C2cS3hkG+MiZgAAQIECBAgQKBDAQ/5fPtAz3hitPd0h8NFSARWCcRtaVUBG68k4bAxuOoIECBAgAABAgQIbCUgCfJPEmQrb/UQaC0g4dBaWPkECBAgQIAAAQIECOwukCWZ8fDwsLuVAAjUEpBwqCWpHAIECBAgQIAAAQIEUgjEX6soD5L0IkCgjYCEQxtXpRIgQIAAAQIECBAg0KnA4+Pj68MjS/LBiwCBNgISDm1clUqAAAECBAgQIECAQKcC5fYKVzl02jnCOpSAhMOhulNjCBAgQIAAAQIECBCYI+AqhzlKliFwnUC2xJ5fqbiuv61NgAABAgQIECBAgMDLy0u5yiF++/r8/MyFAIHKAtkSexIOlQeA4ggQIECAAAECBAjcqkD89tWzHG51FGh3S4FxYq9lXTXKlnCooagMAgQIECBAgAABAgReyi9UuMrBQCDQViBuY21rur50CYfrDZVAgAABAgQIECBAgMC/Aq5yMBQItBWQcGjrq3QCBAgQIECAAAECBDoVGF/l8Pvvv794nkOnnSWslAISDim7TdAECBAgQIAAAQIECNQQiA+2G06OJB5qyCqDwMub25Z693BLRe89JD4CBAgQIECAAAECyQTKg+3u7+/fnBiVxEO53cLVDsk6U7jdCQxJvPLe+6v/CHsXFB8BAgQIECBAgAABAicFxrdXDEmHkwv7kACBWQISDrOYLESAAAECBAgQIECAwC0IjBMPt9BmbSTQSkDCoZWscgkQIECAAAECBAgQSCmQ6SQpJbCgb0Yg/hJMSeb1/HJLRc+9IzYCBAgQIECAAAECBxGQcDhIR2rG7gLxoawl+dDzS8Kh594RGwECBAgQIECAAIGDCMSEQ7bp8gsbd3d3L09PTy9///33QXpEM7IKlIeyxm2o53ZIOPTcO2IjQIAAAQIECBAgcBCBeBl4PFm6pemSuChJCy8C1wrE7ebaslquL+HQUlfZBAgQIECAAAECBAj8FBg/ODKeMJn+5c031rU8SoKjXH7//ft3o/BgAnGM9Nw0CYeee0dsBAgQIECAAAECBAjsLvDt27eXP//88+XTp08vv/76a5PkQDyBNN0mARNds19tEtvy/Py8+zZyLgAJh3MyPidAgAABAgQIECBAgEAlgXLf/f39vWTFL+2TCfFkvPfptYmPeItSzw+OlHCotANRDAECBAgQIECAAAECBHoS+PLly8vHjx8lORIlOeYmIMa3KPU07mIsEg5RwzQBAgQIECBAgAABAgQIHFogy9Uml5IP8eqNXjtMwqHXnhEXAQIECBAgQIAAAQIECBxWYG7ioyQeTj2nQcLhsENDwwgQIECAAAECBAgQIECAQD2BSwmIceJBwqGevZIIECBAgAABAgQIECBAgMBNCJxLPpQHRA5XO0g43MRQ0EgCBAgQIECAAAECBAgQIFBfYPxwyJJkGJIOEg71vZVIgAABAgQIECBAgAABAgRuSmCceIg/i1kSD8NVD72heGhkbz0iHgIECBAgQIAAAQIECBAgMBIYJx3iFQ4lAdHjS8Khx14REwECBAgQIECAAAECBAgQGAmMr2yISYfRol38V8Khi24QBAECBAgQIECAAAECBAgQmBaYusphes195ko47OOuVgIECBAgQIAAAQIECBAgsFjgXNKhx+c4SDgs7l4rECBAgAABAgQIECBAgACB/QRO3VrR43McJBz2GyNqJkCAAAECBAgQIECAAAECiwXOXeWwuKDGK0g4NAZWPAECBAgQIECAAAECBAgQqC1wKulQu45ry5NwuFbQ+gQIECBAgAABAgQIECBAYAeBmHR4eHjYIYLpKiUcpn3MJUCAAAECBAgQIECAAAECBFYISDisQLMKAQIECBAgQIAAAQIECBAgMC0g4TDtYy4BAgQIECBAgAABAgQIECCwQkDCYQWaVQgQIECAAAECBAgQIECAAIFpAQmHaR9zCRAgQIAAAQIECBAgQIAAgRUCEg4r0KxCgAABAgQIECBAgAABAgQITAtIOEz7mEuAAAECBAgQIECAAAECBAisEJBwWIFmFQIECBAgQIAAAQIECBAgQGBaQMJh2sdcAgQIECBAgAABAgQIECBAYIWAhMMKNKsQIECAAAECBAgQIECAAAEC0wISDtM+5hIgQIAAAQIECBAgQIAAAQIrBCQcVqBZhQABAgQIECBAgAABAgQIEJgWkHCY9jGXAAECBAgQIECAAAECBAgQWCEg4bACzSoECBAgQIAAAQIECBAgQIDAtICEw7SPuQQIECBAgAABAgQIECBAgMAKAQmHFWhWIUCAAAECBAgQIECAAAECBKYFJBymfcwlQIAAAQIECBAgQIAAAQIEVghIOKxAswoBAgQIECBAgAABAgQIECAwLSDhMO1jLgECBAgQIECAAAECBAgQILBCQMJhBZpVCBAgQIAAAQIECBAgQIAAgWkBCYdpH3MJECBAgAABAgQIECBAgACBFQISDivQrEKAAAECBAgQIECAAAECBAhMC0g4TPuYS4AAAQIECBAgQIAAAQIECKwQkHBYgWYVAgQIECBAgAABAgQIECBAYFpAwmHax1wCBAgQIECAAAECBAgQIEBghYCEwwo0qxAgQIAAAQIECBAgQIAAAQLTAhIO0z7mEiBAgAABAgQIECBAgAABAisEJBxWoFmFAAECBAgQIECAAAECBAgQmBaQcJj2MZcAAQIECBAgQIAAAQIECBBYISDhsALNKgQIECBAgAABAgQIECBAgMC0gITDtI+5BAgQIECAAAECBAgQIECAwAoBCYcVaFYhQIAAAQIECBAgQIAAAQIEpgUkHKZ9zCVAgAABAgQIECBAgAABAgRWCEg4rECzCgECBAgQIECAAAECBAgQIDAtIOEw7WMuAQIECBAgQIAAAQIECBAgsEJAwmEFmlUIECBAgAABAgQIECBAgACBaQEJh2kfcwkQIECAAAECBAgQIECAAIEVAhIOK9CsQoAAAQIECBAgQIAAAQIECEwLSDhM+5hLgAABAgQIECBAgAABAgQIrBCQcFiBZhUCBAgQIECAAAECBAgQIEBgWkDCYdrHXAIECBAgQIAAAQIECBAgQGCFgITDCjSrECBAgAABAgQIECBAgAABAtMCEg7TPuYSIECAAAECBAgQIECAAAECKwQkHFagWYUAAQIECBAgQIAAAQIECBCYFpBwmPYxlwABAgQIECBAgAABAgQIEFghIOGwAs0qBAgQIECAAAECBAgQIECAwLSAhMO0j7kECBAgQIAAAQIECBAgQIDACgEJhxVoViFAgAABAgQIECBAgAABAgSmBSQcpn3MJUCAAAECBAgQIECAAAECBFYISDisQLMKAQIECBAgQIAAAQIECBAgMC0g4TDtYy4BAgQIECBAgAABAgQIECCwQkDCYQWaVQgQIECAAAECBAgQIECAAIFpAQmHaR9zCRAgQIAAAQIECBAgQIAAgRUCEg4r0KxCgAABAgQIECBAgAABAgQITAtIOEz7mEuAAAECBAgQIECAAAECBAisEJBwWIFmFQIECBAgQIAAAQIECBAgQGBaQMJh2sdcAgQIECBAgAABAgQIECBAYIWAhMMKNKsQIECAAAECBAgQIECAAAEC0wISDtM+5hIgQIAAAQIECBAgQIAAAQIrBCQcVqBZhQABAgQIECBAgAABAgQIEJgWkHCY9jGXAAECBAgQIECAAAECBAgQWCHwfy88y95QFRZaAAAAAElFTkSuQmCC;" parent="1" vertex="1">
          <mxGeometry x="120" y="120" width="542" height="306.55" as="geometry" />
        </mxCell>
        <mxCell id="tvRT0R_IDnyw8l_Jmclq-1" value="Text" style="text;html=1;align=center;verticalAlign=middle;whiteSpace=wrap;rounded=0;" vertex="1" parent="1">
          <mxGeometry x="120" y="450" width="60" height="30" as="geometry" />
        </mxCell>
      </root>
    </mxGraphModel>
  </diagram>
</mxfile>
